<svg width="62" height="50" viewBox="0 0 62 50" fill="none" xmlns="http://www.w3.org/2000/svg">
<g clip-path="url(#clip0_54_15070)">
<path d="M53.9514 -0.0490624C52.2918 -0.0736124 48.4366 0.489788 42 4.79774C38.492 3.92099 34.7594 3.48834 31.0205 3.48834C26.9066 3.48834 22.7492 4.01074 18.8722 5.07429C9.63109 -1.23006 5.55213 0.0618876 5.55213 0.0618876C2.88923 6.72104 4.53478 11.6513 5.03493 12.8757C1.90508 16.2536 -0.00561523 20.5671 -0.00561523 25.8537C-0.00561523 29.8448 0.448635 33.4245 1.55843 36.5363C1.61998 36.7765 1.60003 36.7229 1.70373 36.9285C1.94823 37.5727 2.22008 38.198 2.52563 38.8019C2.63033 39.0192 2.72563 39.1801 2.72563 39.1801C5.84539 44.9954 11.9954 48.752 22.9378 49.9315L39.4876 49.9502C51.1572 48.793 56.7569 45.0253 59.3373 39.1707L59.5013 38.7894C59.7458 38.198 59.959 37.5827 60.542 35.5113C61.1249 33.44 61.3857 29.8527 61.3857 25.8521C61.3857 20.1143 59.2307 15.5232 55.7311 12.0304C56.3427 10.0564 57.1596 5.67249 54.9155 0.0602876C54.9155 0.0602876 54.6008 -0.0394624 53.9514 -0.0491124L53.9514 -0.0490624ZM40.9094 21.0068C43.604 21.001 45.9122 21.4636 47.6452 23.2818V23.2833C49.8137 25.5604 51.0827 28.3096 51.0827 31.2722C51.0827 45.1051 42.1861 45.4814 31.2127 45.4814C20.2374 45.4814 11.3427 43.5646 11.3427 31.2722C11.3427 28.3292 12.5931 25.5964 14.7348 23.3286C18.3074 19.5491 24.3531 21.5505 31.2127 21.5505C34.7339 21.55 38.0409 21.013 40.9095 21.0068L40.9094 21.0068ZM20.469 25.0802C18.1857 25.0802 16.3347 28.1673 16.3347 31.977C16.3347 35.7873 18.1856 38.8754 20.469 38.8754C22.7523 38.8754 24.6034 35.7873 24.6034 31.977C24.6034 28.1678 22.7524 25.083 20.469 25.0802ZM42.6515 25.0802C40.3682 25.0802 38.5171 28.1673 38.5171 31.977C38.5171 35.7873 40.3681 38.8754 42.6515 38.8754C44.9348 38.8754 46.7858 35.7873 46.7858 31.977C46.7858 28.1678 44.9349 25.083 42.6515 25.0802Z" fill="#E26E55"/>
</g>
<defs>
<clipPath id="clip0_54_15070">
<rect width="61.4" height="50" fill="white"/>
</clipPath>
</defs>
</svg>