<svg width="350" height="64" viewBox="0 0 350 64" fill="none" xmlns="http://www.w3.org/2000/svg">
<path d="M16.2162 24.5228C16.2993 24.1717 16.2839 23.8284 16.1697 23.4929C16.0556 23.1574 15.8328 22.962 15.5014 22.9064C15.1227 22.843 14.7617 22.892 14.4183 23.0535C14.0749 23.2149 13.8754 23.4614 13.8199 23.7928C13.3836 26.3965 13.09 28.367 12.9389 29.7045L11.8383 29.52C11.7672 29.5082 11.3155 29.4446 10.4831 29.3295C9.6507 29.2144 8.55605 28.9215 7.19917 28.4508L8.20411 22.8884C8.29136 22.3676 8.02727 22.0557 7.41185 21.9526C7.0568 21.8931 6.7194 21.9461 6.39967 22.1115C6.0839 22.2533 5.89039 22.4642 5.81913 22.7443L4.6837 28.6499L4.35076 30.4192C4.04937 32.2181 3.82264 34.3702 3.67057 36.8755C3.65458 37.1162 3.72541 37.3471 3.88304 37.5682C4.04464 37.7656 4.26746 37.8881 4.55151 37.9357C4.88289 37.9912 5.20646 37.9481 5.52223 37.8063C5.83799 37.6645 6.01379 37.4141 6.0496 37.0551C6.41148 33.7333 6.61819 31.9185 6.66975 31.6107L6.79467 30.8651C8.58554 31.3599 10.0017 31.6945 11.0432 31.869C11.5639 31.9562 12.065 32.0158 12.5463 32.0478C12.0625 34.9355 11.68 36.9277 11.399 38.0244C11.2603 38.7068 11.5934 39.1155 12.3981 39.2503C13.2503 39.3931 13.7874 38.8017 14.0094 37.4762L14.9253 32.2274L16.2162 24.5228Z" fill="#746B78"/>
<path d="M24.6958 40.2033C24.9751 39.1285 25.6441 37.3833 26.7028 34.9676C27.9361 35.4886 29.5857 35.901 31.6515 36.2047L32.1806 41.2676C32.249 41.9568 32.675 42.3591 33.4586 42.4743C33.7673 42.5197 34.0424 42.4631 34.2841 42.3046C34.5257 42.1461 34.6675 41.9243 34.7094 41.6394C34.4768 38.767 34.2519 36.5022 34.0347 34.845C33.8077 33.0893 33.4281 31.299 32.8959 29.4742C32.3602 27.6731 32.0016 26.5651 31.82 26.1503C31.6014 25.6572 31.3022 25.3828 30.9223 25.3269C30.1862 25.2187 29.3541 25.7634 28.4259 26.9611C27.4126 28.2433 26.4831 29.7805 25.6374 31.5725C23.6317 35.644 22.5242 38.3921 22.3147 39.8168C22.2239 40.4342 22.5465 40.797 23.2826 40.9052C24.0424 41.0169 24.5135 40.783 24.6958 40.2033ZM30.3336 28.5879C30.8092 30.1376 31.1636 31.8514 31.3969 33.7293C29.9722 33.5199 28.7585 33.1958 27.7556 32.7573C28.4986 31.1685 29.358 29.7787 30.3336 28.5879Z" fill="#746B78"/>
<path d="M58.353 30.1157C58.4156 29.6156 58.1507 29.2196 57.5584 28.9278C57.4215 28.8623 57.3054 28.8236 57.2101 28.8117C56.6148 28.7372 55.933 29.3533 55.1648 30.66C54.8313 31.1988 54.008 32.7525 52.6948 35.3214C51.599 37.5062 50.8978 38.9543 50.5911 39.6657C50.5375 39.5139 50.414 39.051 50.2206 38.277C50.0302 37.4792 49.822 36.7275 49.5958 36.022C49.4947 35.6707 49.218 34.7895 48.7657 33.3784L47.8239 30.4669C47.5829 29.687 47.3404 29.1124 47.0963 28.7432C46.8553 28.3503 46.5085 28.1255 46.056 28.0688C45.7465 28.0301 45.4071 28.1327 45.0379 28.3768C44.6926 28.6238 44.502 28.8902 44.4662 29.176L44.4394 29.3903C44.4215 29.5332 44.4364 29.7044 44.484 29.9038C44.5584 30.0824 44.6596 30.337 44.7875 30.6674L45.2026 31.699C46.5745 35.2327 47.7468 38.814 48.7197 42.4429C49.0976 43.8688 49.5246 44.6116 50.0009 44.6712C50.6201 44.7487 51.1485 44.3916 51.5862 43.5998C52.8875 41.1262 53.9505 38.9131 54.7754 36.9604C55.6479 35.0137 56.4042 33.512 57.0444 32.4553L57.8572 31.1784C58.155 30.7319 58.3203 30.3777 58.353 30.1157Z" fill="#746B78"/>
<path d="M72.1627 39.087C72.6878 39.1418 73.0817 39.1829 73.3443 39.2103C73.6093 39.2139 73.8016 39.2219 73.9209 39.2343C74.2123 39.2165 74.4911 39.0887 74.7572 38.8511C75.0233 38.6134 75.1713 38.3514 75.2012 38.0649C75.261 37.492 74.9259 37.1192 74.1959 36.9465C71.1644 36.6301 69.3395 36.4276 68.7214 36.3389C68.715 36.1693 68.8288 34.9626 69.0631 32.7188C69.9626 32.8851 70.8421 33.0131 71.7014 33.1028C74.0646 33.3494 75.5739 33.3381 76.2295 33.0687C76.5358 32.9076 76.7127 32.6003 76.76 32.1468C76.8223 31.55 76.4778 31.1521 75.7264 30.953L75.6906 30.9493L69.4358 30.1878L68.4333 30.0832C67.3566 29.9949 66.7722 30.3924 66.68 31.2756C66.5205 32.8033 66.3794 34.5019 66.2567 36.3712C65.9667 36.6064 65.8056 36.8791 65.7732 37.1894C65.7358 37.5475 65.8635 37.8263 66.1564 38.0257L65.536 43.9695C65.4563 44.7333 65.4644 45.3495 65.5603 45.818C65.6562 46.2864 66.0025 46.5518 66.5992 46.6141L73.6246 47.275C74.5555 47.3722 75.0733 46.9195 75.178 45.9169C75.2328 45.3918 74.9178 45.0573 74.233 44.9134L68.0275 44.3743C68.0538 44.3529 68.1006 44.02 68.1679 43.3755L68.5859 38.6775L72.1627 39.087Z" fill="#746B78"/>
<path d="M100.408 48.7211C100.605 47.6282 101.139 45.8372 102.012 43.3481C103.281 43.774 104.957 44.0599 107.04 44.2059L107.952 49.214C108.072 49.8961 108.528 50.2648 109.318 50.3202C109.629 50.3421 109.899 50.2648 110.128 50.0883C110.357 49.9119 110.481 49.6801 110.502 49.3928C110.052 46.5463 109.655 44.3051 109.313 42.6692C108.953 40.9358 108.439 39.1795 107.77 37.4003C107.099 35.6451 106.657 34.5676 106.445 34.1677C106.189 33.6927 105.87 33.4417 105.487 33.4149C104.745 33.3628 103.956 33.9692 103.122 35.2339C102.209 36.5894 101.399 38.1926 100.691 40.0437C99.0007 44.2558 98.105 47.08 98.0042 48.5165C97.9606 49.139 98.3099 49.4762 99.052 49.5283C99.8182 49.582 100.27 49.3129 100.408 48.7211ZM105.147 36.7112C105.739 38.2203 106.223 39.9023 106.598 41.757C105.162 41.6563 103.927 41.4254 102.893 41.0642C103.514 39.4236 104.265 37.9726 105.147 36.7112Z" fill="#746B78"/>
<path d="M137.128 51.7689C138.519 51.8211 139.721 51.7821 140.735 51.652C141.243 51.551 141.509 51.1767 141.534 50.5292C141.564 49.7138 141.184 49.2912 140.392 49.2615L135.056 49.3855C135.04 47.8959 135.052 46.6234 135.091 45.5682C135.127 44.6088 135.323 42.911 135.679 40.4746C135.989 38.5889 136.174 37.2029 136.231 36.3164C136.245 35.9327 136.113 35.6275 135.833 35.4008C135.553 35.1742 135.185 35.0523 134.73 35.0352C133.818 35.001 133.351 35.2837 133.329 35.8833L132.686 46.3065C132.606 48.441 132.619 50.0146 132.725 51.0273C132.783 51.3897 133.112 51.5822 133.712 51.6047L137.128 51.7689Z" fill="#746B78"/>
<path d="M149.681 52.1228C150.041 52.1315 150.392 52.0198 150.733 51.788C151.076 51.5321 151.262 51.2605 151.293 50.9732C151.419 49.7278 151.561 45.8301 151.718 39.28C151.754 37.7924 151.763 36.9164 151.745 36.6519C151.73 36.2674 151.593 35.976 151.334 35.7778C151.098 35.6041 150.8 35.5129 150.44 35.5042C150.08 35.4956 149.778 35.5964 149.533 35.8065C149.312 35.9933 149.198 36.2546 149.19 36.5905L148.694 51.2349C148.68 51.8107 149.009 52.1067 149.681 52.1228Z" fill="#746B78"/>
<path d="M162.772 41.1367C164.746 43.4086 166.631 46.2797 168.427 49.7502C168.498 49.8708 168.64 50.1359 168.853 50.5456C169.066 50.9554 169.374 51.4138 169.778 51.9211C170.111 52.3318 170.577 52.5395 171.177 52.5443C172.185 52.5524 172.694 51.9324 172.704 50.6844L172.631 37.2914C172.634 36.8834 172.505 36.5464 172.243 36.2803C171.981 35.9902 171.695 35.8439 171.383 35.8414C170.591 35.8351 170.095 36.2871 169.896 37.1976L169.893 37.4855L170.05 40.4389C170.176 42.672 170.239 45.2646 170.24 48.2167C169.06 45.6871 167.353 43.0214 165.119 40.2194C164.193 39.012 163.48 38.1783 162.979 37.7182C162.479 37.2342 162.049 36.9908 161.689 36.9879C161.017 36.9825 160.583 37.3031 160.385 37.9495C160.261 38.4525 160.196 39.148 160.189 40.036L160.179 41.2239L159.811 51.3013C159.832 51.6135 159.95 51.8785 160.164 52.0962C160.403 52.2901 160.666 52.3882 160.954 52.3905C161.698 52.3965 162.12 52.0758 162.222 51.4286C162.246 51.3328 162.26 51.0809 162.264 50.6729L162.306 49.8812L162.772 41.1367Z" fill="#746B78"/>
<path d="M182.288 52.7762C182.417 53.3986 182.793 53.7058 183.416 53.6976C183.824 53.6923 184.183 53.5437 184.491 53.2516C184.799 52.9596 184.951 52.6216 184.946 52.2376C185.619 52.3249 186.195 52.3654 186.675 52.3592C188.811 52.3314 190.472 51.8058 191.659 50.7822C192.87 49.7344 193.463 48.2506 193.438 46.3308C193.404 43.715 192.22 41.3062 189.887 39.1043C187.603 36.9018 185.212 35.8168 182.716 35.8492C181.804 35.8611 181.258 36.3242 181.078 37.2386C180.966 37.8402 180.916 38.6089 180.928 39.5448C180.936 40.1447 181.002 41.512 181.126 43.6466C181.281 46.3568 181.477 48.4904 181.713 50.0475C181.548 50.2896 181.467 50.5067 181.469 50.6987C181.473 50.9867 181.633 51.2486 181.948 51.4846L182.288 52.7762ZM183.615 38.5018C185.834 39.337 187.59 40.5383 188.882 42.1056C190.175 43.6729 190.834 45.4525 190.86 47.4444C190.88 49.0282 189.487 49.8384 186.679 49.8749C185.431 49.8911 184.687 49.8768 184.446 49.8319C184.21 48.2989 184.006 46.4174 183.833 44.1874C183.681 41.7172 183.602 40.2781 183.597 39.8701C183.587 39.1262 183.593 38.6701 183.615 38.5018Z" fill="#746B78"/>
<path d="M204.62 51.0175C204.702 49.9101 205.048 48.0732 205.657 45.507C206.964 45.7988 208.661 45.9092 210.747 45.8382L212.174 50.7245C212.365 51.3904 212.856 51.7099 213.648 51.683C213.96 51.6724 214.22 51.5675 214.43 51.3682C214.639 51.169 214.739 50.9255 214.729 50.6376C213.986 47.8533 213.359 45.6653 212.849 44.0738C212.311 42.3871 211.617 40.6937 210.767 38.9936C209.917 37.3175 209.366 36.2916 209.113 35.916C208.81 35.4701 208.466 35.2536 208.083 35.2667C207.339 35.292 206.618 35.9769 205.919 37.3214C205.152 38.7643 204.512 40.443 204.001 42.3575C202.757 46.7223 202.159 49.6243 202.208 51.0635C202.229 51.6871 202.612 51.9863 203.355 51.961C204.123 51.9349 204.544 51.6204 204.62 51.0175ZM208.087 38.5804C208.833 40.0199 209.488 41.6426 210.054 43.4484C208.615 43.4974 207.362 43.3959 206.297 43.1439C206.744 41.4478 207.341 39.9266 208.087 38.5804Z" fill="#746B78"/>
<path d="M230.262 43.2805C230.622 43.2613 230.903 43.1261 231.106 42.8749C231.309 42.6236 231.401 42.3303 231.383 41.9948C231.365 41.6592 231.242 41.3774 231.013 41.1493C230.809 40.9199 230.587 40.8117 230.347 40.8245L225.674 41.0748L225.466 37.1923C226.812 37.1923 227.904 37.1699 228.743 37.125C229.965 37.0595 230.694 36.9725 230.928 36.8638C231.168 36.8509 231.451 36.7636 231.779 36.6019C232.158 36.4855 232.331 36.1277 232.299 35.5286C232.258 34.7617 231.542 34.4154 230.152 34.4899C227.372 34.6387 225.585 34.6984 224.79 34.6688C224.043 34.6367 223.502 34.6297 223.166 34.6476C222.879 34.663 222.601 34.8582 222.333 35.2331C222.132 35.5322 222.037 35.7776 222.048 35.9694C222.092 36.8082 222.428 37.2468 223.055 37.2853C223.101 37.6915 223.185 39.0329 223.307 41.3097L223.611 46.9895C223.701 48.6671 223.777 49.6484 223.841 49.9334C224.009 50.8377 224.465 51.27 225.208 51.2302C225.951 51.1904 226.292 50.6073 226.232 49.4809C226.065 47.7113 225.923 45.7241 225.805 43.5192L230.262 43.2805Z" fill="#746B78"/>
<path d="M250.355 34.3714C250.743 35.7145 251.035 37.7145 251.23 40.3713C251.558 44.8233 250.418 47.1453 247.809 47.3374C246.636 47.4238 245.617 46.825 244.753 45.541C243.912 44.2553 243.348 42.6483 243.062 40.7201C242.944 39.7662 242.862 38.9781 242.816 38.3558C242.719 37.0394 242.689 35.8143 242.726 34.6805C242.727 34.3676 242.624 34.1224 242.419 33.9451C242.213 33.7677 241.955 33.6904 241.644 33.7134C241.332 33.7363 241.018 33.8797 240.701 34.1438C240.381 34.3839 240.221 34.6604 240.22 34.9733C240.194 36.2507 240.218 37.392 240.292 38.3973C240.482 40.9823 240.968 43.3289 241.749 45.4373C242.287 46.8656 243.091 47.9736 244.159 48.7612C245.25 49.5232 246.526 49.8504 247.986 49.7429C250.044 49.5913 251.525 48.9409 252.427 47.7915C253.351 46.6165 253.811 44.8619 253.808 42.5279C253.832 41.8764 253.804 41.012 253.725 39.935C253.584 38.0201 253.308 35.9107 252.898 33.6066C252.855 33.3451 252.707 33.1394 252.456 32.9894C252.228 32.8377 251.946 32.7742 251.611 32.7989C251.252 32.8254 250.937 32.9569 250.666 33.1934C250.396 33.4539 250.273 33.7397 250.296 34.0509L250.355 34.3714Z" fill="#746B78"/>
<path d="M267.472 48.159C268.858 48.0305 270.045 47.836 271.033 47.5756C271.524 47.4095 271.739 47.0039 271.68 46.3587C271.604 45.5462 271.172 45.1765 270.384 45.2497L265.108 46.0644C264.899 44.5894 264.746 43.3262 264.648 42.2747C264.56 41.3188 264.534 39.6099 264.57 37.148C264.634 35.2379 264.637 33.8397 264.579 32.9532C264.544 32.5709 264.372 32.2855 264.066 32.097C263.759 31.9085 263.379 31.8353 262.925 31.8775C262.016 31.9617 261.59 32.3025 261.646 32.9L262.359 43.3186C262.556 45.4455 262.773 47.0041 263.01 47.9945C263.115 48.3463 263.466 48.4945 264.063 48.4391L267.472 48.159Z" fill="#746B78"/>
<path d="M294.458 45.6226C294.655 46.2268 295.063 46.49 295.682 46.4122C296.087 46.3613 296.426 46.1735 296.7 45.8489C296.974 45.5242 297.086 45.1714 297.039 44.7904C297.717 44.8019 298.295 44.7777 298.771 44.7179C300.89 44.4515 302.483 43.7435 303.548 42.5938C304.633 41.4172 305.056 39.8764 304.817 37.9714C304.491 35.3758 303.046 33.1144 300.481 31.187C297.965 29.2537 295.468 28.4427 292.992 28.7538C292.087 28.8675 291.596 29.3888 291.519 30.3176C291.475 30.9279 291.511 31.6974 291.628 32.6261C291.703 33.2214 291.921 34.5728 292.282 36.6801C292.74 39.356 293.173 41.4544 293.581 42.9753C293.445 43.2344 293.388 43.4591 293.412 43.6496C293.448 43.9354 293.636 44.1779 293.975 44.3771L294.458 45.6226ZM294.181 31.2893C296.48 31.8713 298.359 32.8688 299.818 34.2819C301.278 35.6949 302.132 37.3897 302.38 39.3662C302.577 40.9378 301.283 41.8987 298.497 42.2487C297.259 42.4043 296.518 42.4733 296.274 42.4556C295.868 40.9585 295.454 39.1116 295.033 36.915C294.606 34.4772 294.367 33.056 294.316 32.6511C294.223 31.913 294.178 31.459 294.181 31.2893Z" fill="#746B78"/>
<path d="M316.453 41.3792C316.411 40.2695 316.55 38.4056 316.868 35.7874C318.199 35.9313 319.898 35.8513 321.963 35.5476L323.928 40.2438C324.192 40.8842 324.715 41.1468 325.499 41.0316C325.808 40.9862 326.055 40.8528 326.241 40.6314C326.426 40.41 326.498 40.1569 326.456 39.8719C325.407 37.1881 324.539 35.0839 323.854 33.5593C323.131 31.9433 322.253 30.3381 321.218 28.7437C320.186 27.173 319.524 26.2152 319.23 25.8702C318.879 25.4609 318.514 25.2843 318.134 25.3401C317.398 25.4484 316.758 26.2096 316.213 27.6238C315.612 29.1434 315.164 30.8831 314.87 32.8427C314.122 37.3192 313.852 40.2698 314.062 41.6945C314.152 42.3119 314.566 42.5664 315.302 42.4582C316.062 42.3465 316.446 41.9868 316.453 41.3792ZM318.509 28.6326C319.41 29.9798 320.243 31.519 321.007 33.2503C319.582 33.4597 318.327 33.4988 317.24 33.3675C317.494 31.6321 317.917 30.0538 318.509 28.6326Z" fill="#746B78"/>
<path d="M341.723 21.4431C341.604 21.4629 341.461 21.5479 341.291 21.698C340.968 21.9468 340.534 22.7008 339.991 23.9599L339.188 25.9196L338.183 28.2049C337.741 27.7436 337.153 27.0635 336.418 26.1646C334.621 24.0079 333.557 22.9573 333.225 23.0128C332.752 23.0921 332.391 23.4081 332.143 23.9607C332.037 24.1975 331.998 24.3987 332.025 24.5644C332.049 24.7064 332.106 24.8307 332.197 24.9371C334.33 27.6459 336.017 29.5778 337.256 30.7328C337.435 31.36 337.575 31.9813 337.678 32.5968L338.285 36.4373C338.503 37.7391 338.764 38.4984 339.068 38.7152C339.179 38.794 339.341 38.8155 339.554 38.7799C340.287 38.6569 340.674 38.2758 340.713 37.6366C340.752 36.9974 340.593 35.6126 340.236 33.4823L339.718 30.3934C339.954 29.7698 340.23 29.1639 340.545 28.5757L340.917 27.7469L341.555 26.3259L342.241 24.751C342.705 23.6025 342.888 22.7323 342.789 22.1406C342.705 21.6435 342.35 21.411 341.723 21.4431Z" fill="#746B78"/>
</svg>
