<svg width="55" height="55" viewBox="0 0 55 55" fill="none" xmlns="http://www.w3.org/2000/svg">
<path d="M10.7835 0.0136719C4.85905 0.0136719 0.0102539 4.86236 0.0102539 10.7869V44.2182C0.0102539 50.1426 4.85894 54.9896 10.7835 54.9896H44.2147C50.1392 54.9896 54.9862 50.1427 54.9862 44.2182V10.7869C54.9862 4.86247 50.1392 0.0136719 44.2147 0.0136719H10.7835ZM13.4931 9.08581C16.3338 9.08581 18.0835 10.9506 18.1375 13.4019C18.1375 15.7991 16.3336 17.7164 13.4382 17.7164H13.3849C10.5983 17.7164 8.79722 15.7992 8.79722 13.4019C8.79722 10.9507 10.6528 9.08581 13.4931 9.08581H13.4931ZM37.9725 20.5429C43.4356 20.5429 47.531 24.1136 47.531 31.7868V46.1115H39.2286V32.7473C39.2286 29.389 38.027 27.0978 35.0224 27.0978C32.7287 27.0978 31.3615 28.6421 30.7612 30.1339C30.5419 30.6676 30.488 31.413 30.488 32.1596V46.1115H22.1856C22.1856 46.1115 22.2945 23.4728 22.1856 21.1287H30.4897V24.6665C31.593 22.9643 33.5665 20.5428 37.9725 20.5428V20.5429ZM9.28694 21.1305H17.5894V46.1117H9.28694V21.1305Z" fill="#8490A8"/>
</svg>