<?xml version="1.0" encoding="UTF-8"?>
<svg viewBox="0 0 508 253" xmlns="http://www.w3.org/2000/svg">
<path d="m25.9 146.49c-4.558-0.571-7.9935-2.372-10.306-5.402-2.6035-3.35-3.5466-7.885-2.8294-13.606 0.3382-2.697 1.101-5.767 2.2883-9.209l24.253-69.664 21.498-0.2101-26.069 75.106c-0.5237 1.162-0.9021 2.674-1.1354 4.534-0.2449 1.954 0.0249 3.381 0.8095 4.283 0.8311 0.907 2.2699 1.489 4.3164 1.745 1.3953 0.175 2.782 0.042 4.1601-0.399 1.4305-0.482 2.7738-1.211 4.03-2.188 2.5648-1.993 4.6647-4.8 6.2998-8.422l5.9999 0.752c-3.4619 6.889-7.3913 12.23-11.788 16.025-3.6931 3.081-7.6824 5.131-11.968 6.153-3.1167 0.743-6.3029 0.911-9.5587 0.502z" fill="#00AAE0"/>
<path d="m87.55 72.306c-1.5391-0.1549-2.9801-0.5827-4.3229-1.2832-1.3381-0.7472-2.4686-1.6854-3.3914-2.8148-0.9274-1.0827-1.6239-2.3542-2.0893-3.8144-0.4189-1.4555-0.5508-2.9528-0.3959-4.4919 0.155-1.5391 0.5827-2.9801 1.2832-4.3229 0.7472-1.3381 1.6878-2.4919 2.8219-3.4613 1.134-0.9694 2.4288-1.6635 3.8843-2.0824 1.4603-0.4654 2.9599-0.6207 4.499-0.4657 1.5391 0.1549 2.9777 0.606 4.3159 1.3531 1.3428 0.7006 2.4966 1.6412 3.4613 2.8219s1.6565 2.4988 2.0753 3.9543c0.4656 1.4602 0.6206 2.9599 0.4656 4.4989-0.155 1.5391-0.6059 2.9778-1.353 4.3159-0.7005 1.3428-1.6365 2.45-2.8078 3.3214-1.176 0.9181-2.4941 1.6098-3.9543 2.0753-1.4555 0.4188-2.9528 0.5508-4.4919 0.3958zm-17.802 79.264c-4.5706-0.46-8.049-2.177-10.435-5.149-2.6845-3.286-3.7379-7.797-3.1604-13.533 0.2723-2.705 0.96-5.793 2.0631-9.262l14.351-44.984 20.638 2.0776-15.186 47.656c-0.4952 1.175-0.8367 2.695-1.0245 4.561-0.1972 1.958 0.1074 3.379 0.9137 4.261 0.853 0.887 2.3055 1.433 4.3576 1.64 1.3992 0.141 2.7823-0.026 4.1492-0.501 1.4183-0.517 2.7434-1.279 3.9755-2.285 2.5154-2.055 4.5462-4.913 6.0925-8.574l6.0163 0.606c-3.2928 6.971-7.0907 12.407-11.394 16.308-3.6169 3.169-7.555 5.317-11.814 6.443-3.0976 0.819-6.2787 1.064-9.5435 0.735z" fill="#00AAE0"/>
<path d="m151.36 158.22c-5.94-0.395-10.224-2.372-12.853-5.93-2.285-3.065-3.277-6.865-2.975-11.402 0.144-2.152 0.567-4.637 1.272-7.456 0.751-2.815 1.814-6.432 3.189-10.851 1.381-4.512 2.419-8.107 3.115-10.785 0.745-2.722 1.184-5.089 1.318-7.1 0.327-4.9112-1.24-7.482-4.701-7.7125-2.432-0.1621-4.762 0.9746-6.992 3.4095-1.877 2.083-3.582 5.117-5.116 9.102l-12.822 45.444-20.697-1.379 20.01-70.826 20.696 1.3787-2.038 7.3338c3.015-2.9467 6.178-4.944 9.489-5.9919 2.448-0.7765 5.051-1.0728 7.811-0.889 4.864 0.3241 8.615 1.8424 11.253 4.555 2.81 2.9589 4.031 7.1979 3.663 12.717-0.221 3.321-1.117 7.607-2.689 12.858-0.43 1.521-1.122 3.801-2.076 6.838-1.702 5.101-2.96 9.175-3.774 12.221-0.505 1.94-0.798 3.517-0.879 4.733-0.128 1.918 0.194 3.443 0.964 4.575 0.82 1.088 2.282 1.702 4.387 1.842 2.853 0.19 5.34-0.819 7.46-3.026 1.615-1.678 3.433-4.634 5.453-8.868l6.034 0.402c-4.256 10.286-9.237 17.354-14.943 21.202-4.034 2.738-8.554 3.94-13.559 3.606z" fill="#00AAE0"/>
<path d="m194.9 160.27c-5.483-0.123-9.873-1.933-13.171-5.429-3.846-4.119-5.679-10.162-5.5-18.128 0.076-3.375 0.507-6.928 1.294-10.662 0.74-3.734 1.808-7.414 3.202-11.04 3.184-8.18 7.434-14.743 12.75-19.687 6.128-5.6295 13.105-8.3564 20.931-8.1806 3.889 0.0873 6.78 0.8321 8.671 2.2342 1.938 1.3564 2.883 3.1359 2.834 5.3384l-0.013 0.5624 7.773-32.951 21.364-2.4039-18.265 77.375c-0.453 1.397-0.699 2.938-0.737 4.626-0.044 1.968 0.394 3.361 1.313 4.178 0.919 0.818 2.41 1.25 4.472 1.296 2.671 0.06 5.088-1.081 7.25-3.424 1.829-2.068 3.397-5.081 4.705-9.037l6.045 0.136c-2.693 7.16-5.937 12.784-9.733 16.872-3.218 3.397-6.763 5.732-10.636 7.005-2.787 0.922-5.821 1.346-9.102 1.272-3.983-0.089-7.169-1.216-9.559-3.379-2.389-2.164-3.82-5.267-4.292-9.31-2.665 3.832-5.521 6.769-8.567 8.81-3.953 2.725-8.296 4.034-13.029 3.927zm9.662-13.708c1.031 0.023 2.138-0.21 3.321-0.699 1.23-0.488 2.394-1.189 3.493-2.102 2.582-2.239 4.337-5.201 5.264-8.884l0.017-0.773 7.77-32.811c-0.299-1.3192-0.744-2.3841-1.335-3.1945-0.957-1.2405-2.443-1.8834-4.458-1.9287-1.921-0.0431-3.81 0.5475-5.666 1.7717-1.809 1.2253-3.536 2.9445-5.18 5.1585-2.903 4.014-5.342 9.281-7.317 15.801-0.909 2.886-1.606 5.754-2.092 8.603-0.485 2.803-0.754 5.352-0.805 7.648-0.107 4.78 0.71 8.034 2.453 9.761 0.595 0.67 1.265 1.107 2.01 1.311 0.746 0.204 1.587 0.317 2.525 0.338z" fill="#00AAE0"/>
<path d="m276.16 161.2c-5.483 0.123-9.95-1.488-13.4-4.833-4.027-3.942-6.13-9.896-6.309-17.863-0.076-3.374 0.195-6.944 0.814-10.709 0.572-3.763 1.473-7.488 2.703-11.173 2.814-8.315 6.765-15.061 11.854-20.24 5.869-5.8989 12.716-8.9362 20.542-9.1119 3.89-0.0873 6.811 0.527 8.763 1.8428 1.997 1.268 3.021 3.0033 3.07 5.2059l0.024 1.0544 1.375-7.6969 20.737-0.4656-9.235 49.157c-0.39 1.416-0.567 2.967-0.529 4.654 0.093 4.124 2.107 6.142 6.044 6.053 2.624-0.059 4.984-1.448 7.08-4.167 1.777-2.291 3.205-5.511 4.284-9.661l6.046-0.136c-2.414 7.368-5.4 13.226-8.96 17.573-3.014 3.584-6.448 6.193-10.303 7.827-2.834 1.188-5.844 1.819-9.03 1.89-4.077 0.092-7.359-0.936-9.846-3.084-2.44-2.196-3.967-5.467-4.58-9.814-2.632 3.904-5.423 6.967-8.374 9.19-3.78 2.898-8.036 4.401-12.77 4.507zm9.037-14.128c1.078-0.025 2.196-0.331 3.355-0.92 1.206-0.589 2.36-1.412 3.461-2.469 2.476-2.493 4.092-5.695 4.849-9.603l6.159-32.631c-0.01-0.469-0.14-1.005-0.388-1.6089-0.202-0.6518-0.497-1.2547-0.884-1.8087-1.155-1.3338-2.741-1.978-4.756-1.9328-1.921 0.0432-3.781 0.7179-5.581 2.0243-1.752 1.3052-3.4 3.1001-4.942 5.3861-2.721 4.14-4.921 9.511-6.601 16.113-0.779 2.924-1.347 5.821-1.704 8.689-0.359 2.821-0.512 5.38-0.461 7.676 0.108 4.78 1.071 7.994 2.889 9.641 0.624 0.642 1.313 1.049 2.067 1.219 0.754 0.171 1.6 0.246 2.537 0.225z" fill="#00AAE0"/>
<path d="m329.13 195.2c-2.153 0.123-4.257-0.132-6.312-0.766-2.102-0.631-3.987-1.58-5.656-2.846-1.721-1.357-3.104-2.968-4.15-4.833-1.043-1.819-1.628-3.851-1.757-6.097-0.184-3.23 0.29-6.027 1.422-8.392 1.086-2.363 2.75-4.453 4.994-6.272 1.976-1.568 4.313-2.993 7.01-4.274 2.653-1.232 6.003-2.573 10.052-4.026l12.715-83.126c1.256-9.2274 4.597-16.086 10.022-20.574 3.9-3.2278 8.822-5.0116 14.765-5.3513 2.153-0.1231 4.257 0.1323 6.312 0.7661 2.102 0.631 3.987 1.5797 5.656 2.8459 1.721 1.3571 3.081 2.9697 4.08 4.8376 1.043 1.8184 1.628 3.8508 1.757 6.0972 0.128 2.2463 0.1 4.2199-0.085 5.9207l-6.739 0.3851c0.105-1.4614 0.125-2.7537 0.061-3.8769-0.091-1.5911-0.699-2.7772-1.824-3.558-1.077-0.7835-2.388-1.1312-3.933-1.0429-1.918 0.1097-3.677 0.9614-5.277 2.5553-2.131 2.1407-3.493 5.4113-4.087 9.8117l-1.807 11.512 10.53-0.6018-0.724 5.8164-10.6 0.6059-12.129 78.586c-1.304 9.23-4.551 16.083-9.741 20.558-3.807 3.222-8.659 5.002-14.555 5.339zm-4.03-12.587c1.685-0.096 3.16-0.979 4.427-2.648 1.393-1.91 2.418-4.927 3.074-9.049l1.418-8.462c-5.005 1.976-8.665 4.063-10.981 6.262-2.85 2.698-4.173 5.849-3.967 9.452 0.072 1.264 0.671 2.286 1.795 3.067 1.325 1.004 2.737 1.463 4.234 1.378z" fill="#00AAE0"/>
<path d="m398.4 155.74c-4.575 0.417-8.316-0.607-11.224-3.072-3.26-2.715-5.152-6.944-5.675-12.686-0.247-2.707-0.159-5.869 0.265-9.485l5.539-46.892 20.657-1.883-5.851 49.674c-0.148 1.473-0.165 2.839-0.05 4.1 0.358 3.921 1.96 5.752 4.808 5.492 2.614-0.238 4.863-1.644 6.746-4.216 1.498-2.16 2.692-5.329 3.582-9.505l5.539-46.892 20.657-1.883-5.851 49.674c-0.292 1.439-0.362 2.998-0.209 4.679 0.179 1.961 0.772 3.295 1.778 4.004 1.005 0.708 2.535 0.969 4.589 0.781 2.661-0.242 4.934-1.65 6.817-4.222 1.676-2.271 2.893-5.441 3.652-9.511l6.022-0.549c-1.904 7.516-4.483 13.564-7.737 18.144-2.761 3.782-6.009 6.62-9.744 8.514-2.745 1.38-5.705 2.214-8.879 2.504-4.108 0.374-7.48-0.472-10.116-2.538s-4.415-5.316-5.337-9.751c-2.791 5.526-6.139 9.597-10.042 12.212-2.796 1.856-6.109 2.958-9.936 3.307z" fill="#00AAE0"/>
<path d="m476.19 147.79c-4.558 0.572-8.332-0.325-11.321-2.691-3.35-2.603-5.384-6.765-6.101-12.486-0.338-2.698-0.357-5.861-0.056-9.489l6.305-73.496 20.78-5.5107-6.721 79.217c-0.22 1.256-0.214 2.814 0.019 4.674 0.245 1.954 0.859 3.27 1.842 3.95 1.029 0.674 2.567 0.883 4.614 0.627 1.395-0.175 2.706-0.647 3.933-1.415 1.267-0.82 2.388-1.858 3.365-3.114 1.993-2.565 3.335-5.804 4.025-9.717l6-0.753c-1.654 7.53-4.143 13.677-7.467 18.44-2.818 3.896-6.178 6.869-10.078 8.917-2.837 1.489-5.883 2.438-9.139 2.846z" fill="#00AAE0"/>
<path d="m20.9 146.49c-4.558-0.571-7.9935-2.372-10.306-5.402-2.6035-3.35-3.5466-7.885-2.8294-13.606 0.33821-2.697 1.101-5.767 2.2883-9.209l24.253-69.664 21.498-0.2101-26.069 75.106c-0.5237 1.162-0.9021 2.674-1.1354 4.534-0.2449 1.954 0.0249 3.381 0.8095 4.283 0.8311 0.907 2.2699 1.489 4.3164 1.745 1.3953 0.175 2.782 0.042 4.1601-0.399 1.4305-0.482 2.7738-1.211 4.03-2.188 2.5648-1.993 4.6647-4.8 6.2998-8.422l5.9999 0.752c-3.4619 6.889-7.3913 12.23-11.788 16.025-3.6931 3.081-7.6824 5.131-11.968 6.153-3.1167 0.743-6.3029 0.911-9.5587 0.502z" fill="#fff"/>
<path d="m82.55 72.306c-1.5391-0.1549-2.9801-0.5827-4.3229-1.2832-1.3381-0.7472-2.4686-1.6854-3.3914-2.8148-0.9274-1.0827-1.6239-2.3542-2.0893-3.8144-0.4189-1.4555-0.5508-2.9528-0.3959-4.4919 0.155-1.5391 0.5827-2.9801 1.2832-4.3229 0.7472-1.3381 1.6878-2.4919 2.8219-3.4613 1.134-0.9694 2.4288-1.6635 3.8843-2.0824 1.4603-0.4654 2.9599-0.6207 4.499-0.4657 1.5391 0.1549 2.9777 0.606 4.3159 1.3531 1.3428 0.7006 2.4966 1.6412 3.4613 2.8219s1.6565 2.4988 2.0753 3.9543c0.4654 1.4602 0.6207 2.9599 0.4657 4.4989-0.1549 1.5391-0.606 2.9778-1.3531 4.3159-0.7005 1.3428-1.6365 2.45-2.8078 3.3214-1.176 0.9181-2.4941 1.6098-3.9543 2.0753-1.4555 0.4188-2.9528 0.5508-4.4919 0.3958zm-17.802 79.264c-4.5706-0.46-8.049-2.177-10.435-5.149-2.6845-3.286-3.7379-7.797-3.1604-13.533 0.2723-2.705 0.96-5.793 2.0631-9.262l14.351-44.984 20.638 2.0776-15.186 47.656c-0.4952 1.175-0.8367 2.695-1.0245 4.561-0.1972 1.958 0.1074 3.379 0.9137 4.261 0.853 0.887 2.3055 1.433 4.3576 1.64 1.3992 0.141 2.7823-0.026 4.1492-0.501 1.4183-0.517 2.7434-1.279 3.9755-2.285 2.5154-2.055 4.5462-4.913 6.0925-8.574l6.0165 0.606c-3.293 6.971-7.0909 12.407-11.394 16.308-3.6169 3.169-7.555 5.317-11.814 6.443-3.0976 0.819-6.2787 1.064-9.5435 0.735z" fill="#fff"/>
<path d="m146.36 158.22c-5.94-0.395-10.224-2.372-12.853-5.93-2.285-3.065-3.277-6.865-2.975-11.402 0.144-2.152 0.567-4.637 1.272-7.456 0.751-2.815 1.814-6.432 3.189-10.851 1.381-4.512 2.419-8.107 3.115-10.785 0.745-2.722 1.184-5.089 1.318-7.1 0.327-4.9112-1.24-7.482-4.701-7.7125-2.432-0.1621-4.762 0.9746-6.992 3.4095-1.877 2.083-3.582 5.117-5.116 9.102l-12.822 45.444-20.697-1.379 20.01-70.826 20.696 1.3787-2.038 7.3338c3.015-2.9467 6.178-4.944 9.489-5.9919 2.448-0.7765 5.051-1.0728 7.811-0.889 4.864 0.3241 8.615 1.8424 11.253 4.555 2.81 2.9589 4.031 7.1979 3.663 12.717-0.221 3.321-1.117 7.607-2.689 12.858-0.43 1.521-1.122 3.801-2.076 6.838-1.702 5.101-2.96 9.175-3.774 12.221-0.505 1.94-0.798 3.517-0.879 4.733-0.128 1.918 0.194 3.443 0.964 4.575 0.82 1.088 2.282 1.702 4.387 1.842 2.853 0.19 5.34-0.819 7.46-3.026 1.615-1.678 3.433-4.634 5.453-8.868l6.034 0.402c-4.256 10.286-9.237 17.354-14.943 21.202-4.034 2.738-8.554 3.94-13.559 3.606z" fill="#fff"/>
<path d="m189.9 160.27c-5.483-0.123-9.873-1.933-13.171-5.429-3.846-4.119-5.679-10.162-5.5-18.128 0.076-3.375 0.507-6.928 1.294-10.662 0.74-3.734 1.808-7.414 3.202-11.04 3.184-8.18 7.434-14.743 12.75-19.687 6.128-5.6295 13.105-8.3564 20.931-8.1806 3.889 0.0873 6.78 0.8321 8.671 2.2342 1.938 1.3564 2.883 3.1359 2.834 5.3384l-0.013 0.5624 7.773-32.951 21.364-2.4039-18.265 77.375c-0.453 1.397-0.699 2.938-0.737 4.626-0.044 1.968 0.394 3.361 1.313 4.178 0.919 0.818 2.41 1.25 4.472 1.296 2.671 0.06 5.088-1.081 7.25-3.424 1.829-2.068 3.397-5.081 4.705-9.037l6.045 0.136c-2.693 7.16-5.937 12.784-9.733 16.872-3.218 3.397-6.763 5.732-10.636 7.005-2.787 0.922-5.821 1.346-9.102 1.272-3.983-0.089-7.169-1.216-9.559-3.379-2.389-2.164-3.82-5.267-4.292-9.31-2.665 3.832-5.521 6.769-8.567 8.81-3.953 2.725-8.296 4.034-13.029 3.927zm9.662-13.708c1.031 0.023 2.138-0.21 3.321-0.699 1.23-0.488 2.394-1.189 3.493-2.102 2.582-2.239 4.337-5.201 5.264-8.884l0.017-0.773 7.77-32.811c-0.299-1.3192-0.744-2.3841-1.335-3.1945-0.957-1.2405-2.443-1.8834-4.458-1.9287-1.921-0.0431-3.81 0.5475-5.666 1.7717-1.809 1.2253-3.536 2.9445-5.18 5.1585-2.903 4.014-5.342 9.281-7.317 15.801-0.909 2.886-1.606 5.754-2.092 8.603-0.485 2.803-0.754 5.352-0.805 7.648-0.107 4.78 0.71 8.034 2.453 9.761 0.595 0.67 1.265 1.107 2.01 1.311 0.746 0.204 1.587 0.317 2.525 0.338z" fill="#fff"/>
<path d="m271.16 161.2c-5.483 0.123-9.95-1.488-13.4-4.833-4.027-3.942-6.13-9.896-6.309-17.863-0.076-3.374 0.195-6.944 0.814-10.709 0.572-3.763 1.473-7.488 2.703-11.173 2.814-8.315 6.765-15.061 11.854-20.24 5.869-5.8989 12.716-8.9362 20.542-9.1119 3.89-0.0873 6.811 0.527 8.763 1.8428 1.997 1.268 3.021 3.0033 3.07 5.2059l0.024 1.0544 1.375-7.6969 20.737-0.4656-9.235 49.157c-0.39 1.416-0.567 2.967-0.529 4.654 0.093 4.124 2.107 6.142 6.044 6.053 2.624-0.059 4.984-1.448 7.08-4.167 1.777-2.291 3.205-5.511 4.284-9.661l6.046-0.136c-2.414 7.368-5.4 13.226-8.96 17.573-3.014 3.584-6.448 6.193-10.303 7.827-2.834 1.188-5.844 1.819-9.03 1.89-4.077 0.092-7.359-0.936-9.846-3.084-2.44-2.196-3.967-5.467-4.58-9.814-2.632 3.904-5.423 6.967-8.374 9.19-3.78 2.898-8.036 4.401-12.77 4.507zm9.037-14.128c1.078-0.025 2.196-0.331 3.355-0.92 1.206-0.589 2.36-1.412 3.461-2.469 2.476-2.493 4.092-5.695 4.849-9.603l6.159-32.631c-0.01-0.469-0.14-1.005-0.388-1.6089-0.202-0.6518-0.497-1.2547-0.884-1.8087-1.155-1.3338-2.741-1.978-4.756-1.9328-1.921 0.0432-3.781 0.7179-5.581 2.0243-1.752 1.3052-3.4 3.1001-4.942 5.3861-2.721 4.14-4.921 9.511-6.601 16.113-0.779 2.924-1.347 5.821-1.704 8.689-0.359 2.821-0.512 5.38-0.461 7.676 0.108 4.78 1.071 7.994 2.889 9.641 0.624 0.642 1.313 1.049 2.067 1.219 0.754 0.171 1.6 0.246 2.537 0.225z" fill="#fff"/>
<path d="m324.13 195.2c-2.153 0.123-4.257-0.132-6.312-0.766-2.102-0.631-3.987-1.58-5.656-2.846-1.721-1.357-3.104-2.968-4.15-4.833-1.043-1.819-1.628-3.851-1.757-6.097-0.184-3.23 0.29-6.027 1.422-8.392 1.086-2.363 2.75-4.453 4.994-6.272 1.976-1.568 4.313-2.993 7.01-4.274 2.653-1.232 6.003-2.573 10.052-4.026l12.715-83.126c1.256-9.2274 4.597-16.086 10.022-20.574 3.9-3.2278 8.822-5.0116 14.765-5.3513 2.153-0.1231 4.257 0.1323 6.312 0.7661 2.102 0.631 3.987 1.5797 5.656 2.8459 1.721 1.3571 3.081 2.9697 4.08 4.8376 1.043 1.8184 1.628 3.8508 1.757 6.0972 0.128 2.2463 0.1 4.2199-0.085 5.9207l-6.739 0.3851c0.105-1.4614 0.125-2.7537 0.061-3.8769-0.091-1.5911-0.699-2.7772-1.824-3.558-1.077-0.7835-2.388-1.1312-3.933-1.0429-1.918 0.1097-3.677 0.9614-5.277 2.5553-2.131 2.1407-3.493 5.4113-4.087 9.8117l-1.807 11.512 10.53-0.6018-0.724 5.8164-10.6 0.6059-12.129 78.586c-1.304 9.23-4.551 16.083-9.741 20.558-3.807 3.222-8.659 5.002-14.555 5.339zm-4.03-12.587c1.685-0.096 3.16-0.979 4.427-2.648 1.393-1.91 2.418-4.927 3.074-9.049l1.418-8.462c-5.005 1.976-8.665 4.063-10.981 6.262-2.85 2.698-4.173 5.849-3.967 9.452 0.072 1.264 0.671 2.286 1.795 3.067 1.325 1.004 2.737 1.463 4.234 1.378z" fill="#fff"/>
<path d="m393.4 155.74c-4.575 0.417-8.316-0.607-11.224-3.072-3.26-2.715-5.152-6.944-5.675-12.686-0.247-2.707-0.159-5.869 0.265-9.485l5.539-46.892 20.657-1.883-5.851 49.674c-0.148 1.473-0.165 2.839-0.05 4.1 0.358 3.921 1.96 5.752 4.808 5.492 2.614-0.238 4.863-1.644 6.746-4.216 1.498-2.16 2.692-5.329 3.582-9.505l5.539-46.892 20.657-1.883-5.851 49.674c-0.292 1.439-0.362 2.998-0.209 4.679 0.179 1.961 0.772 3.295 1.778 4.004 1.005 0.708 2.535 0.969 4.589 0.781 2.661-0.242 4.934-1.65 6.817-4.222 1.676-2.271 2.893-5.441 3.652-9.511l6.022-0.549c-1.904 7.516-4.483 13.564-7.737 18.144-2.761 3.782-6.009 6.62-9.744 8.514-2.745 1.38-5.705 2.214-8.879 2.504-4.108 0.374-7.48-0.472-10.116-2.538s-4.415-5.316-5.337-9.751c-2.791 5.526-6.139 9.597-10.042 12.212-2.796 1.856-6.109 2.958-9.936 3.307z" fill="#fff"/>
<path d="m471.19 147.79c-4.558 0.572-8.332-0.325-11.321-2.691-3.35-2.603-5.384-6.765-6.101-12.486-0.338-2.698-0.357-5.861-0.056-9.489l6.305-73.496 20.78-5.5107-6.721 79.217c-0.22 1.256-0.214 2.814 0.019 4.674 0.245 1.954 0.859 3.27 1.842 3.95 1.029 0.674 2.567 0.883 4.614 0.627 1.395-0.175 2.706-0.647 3.933-1.415 1.267-0.82 2.388-1.858 3.365-3.114 1.993-2.565 3.335-5.804 4.025-9.717l6-0.753c-1.654 7.53-4.143 13.677-7.467 18.44-2.818 3.896-6.178 6.869-10.078 8.917-2.837 1.489-5.883 2.438-9.139 2.846z" fill="#fff"/>
<path d="m82.863 219.46c0.3551 0.059 0.6589-0.012 0.9114-0.213s0.4064-0.468 0.4616-0.799c0.0553-0.332-0.0039-0.634-0.1776-0.906-0.1499-0.268-0.3433-0.422-0.58-0.461l-4.6164-0.769 0.639-3.836c1.3139 0.292 2.3851 0.507 3.2137 0.645 1.2074 0.201 1.9373 0.274 2.1898 0.219 0.2368 0.04 0.5327 0.016 0.8878-0.071 0.3945-0.031 0.6411-0.343 0.7397-0.935 0.1262-0.758-0.4972-1.251-1.8703-1.48-2.7461-0.457-4.5039-0.786-5.2733-0.988-0.722-0.193-1.2488-0.317-1.5802-0.372-0.2841-0.048-0.5977 0.083-0.941 0.39-0.2604 0.249-0.4064 0.468-0.4379 0.657-0.1381 0.829 0.0947 1.33 0.6984 1.503-0.0434 0.407-0.2524 1.735-0.6271 3.984l-0.9348 5.61c-0.2761 1.657-0.4141 2.632-0.4141 2.924-0.0315 0.919 0.3196 1.44 1.0535 1.562 0.7339 0.123 1.1935-0.373 1.3789-1.485 0.2209-1.764 0.5127-3.735 0.8756-5.913l4.4033 0.734z" fill="#00AAE0"/>
<path d="m94.931 227.67c0.2455-2.147 0.4074-3.566 0.4858-4.258 0.8748 0.809 1.8503 1.839 2.9264 3.09 1.0524 1.248 1.7032 2.097 1.9522 2.546 0.349 0.586 0.703 0.905 1.059 0.958 0.095 0.014 0.254 1e-3 0.478-0.039 0.598-0.105 0.936-0.419 1.013-0.941 0.11-0.736-0.333-1.76-1.327-3.072-1.042-1.319-2.2187-2.549-3.5296-3.69 0.1934 5e-3 0.8173-0.194 1.8716-0.596 1.054-0.401 1.844-0.733 2.368-0.995 0.605-0.323 1.17-0.773 1.692-1.351 0.546-0.574 0.856-1.11 0.93-1.609 0.162-1.092-0.284-2.092-1.339-3-1.05-0.932-2.335-1.511-3.8546-1.736-1.5432-0.229-2.7975-0.197-3.763 0.097-0.9655 0.293-1.5045 0.82-1.6171 1.58-1.1684 7.882-1.7773 12.316-1.8267 13.304-0.0703 0.475 0.1556 0.751 0.6779 0.828 0.4036 0.06 0.7909-0.016 1.162-0.228s0.583-0.496 0.6358-0.852l0.0053-0.036zm0.9556-7.428c0.373-2.516 0.6277-4.153 0.7641-4.909 0.8863-0.087 1.7806-0.063 2.6827 0.07 0.855 0.127 1.588 0.418 2.2 0.872 0.639 0.435 0.915 0.949 0.827 1.542-0.17 0.655-1.096 1.257-2.7794 1.808-1.7033 0.524-2.9347 0.73-3.6944 0.617z" fill="#00AAE0"/>
<path d="m121.05 216.08c-2.262-0.289-4.116 0.114-5.563 1.211-1.423 1.1-2.291 2.865-2.601 5.293-0.314 2.452 0.048 4.627 1.087 6.527 1.043 1.875 2.563 2.941 4.563 3.197 1.857 0.238 3.478-0.425 4.864-1.99 1.413-1.585 2.269-3.545 2.568-5.878 0.298-2.332-1e-3 -4.246-0.898-5.74-0.895-1.518-2.235-2.391-4.02-2.62zm-1.93 13.654c-1.405-0.18-2.438-0.99-3.101-2.43-0.641-1.413-0.862-2.905-0.66-4.476 0.201-1.571 0.736-2.725 1.604-3.46 0.872-0.76 1.998-1.051 3.378-0.874 1.357 0.173 2.253 0.736 2.688 1.687 0.462 0.93 0.567 2.371 0.317 4.323-0.247 1.928-0.921 3.415-2.022 4.459-0.66 0.617-1.395 0.874-2.204 0.771z" fill="#00AAE0"/>
<path d="m137.72 223.34c1.74 2.456 3.332 5.499 4.776 9.13 0.059 0.127 0.174 0.405 0.345 0.834s0.433 0.916 0.784 1.46c0.291 0.442 0.734 0.695 1.331 0.759 1.002 0.108 1.57-0.459 1.703-1.7l1.253-13.334c0.043-0.406-0.052-0.754-0.286-1.045-0.232-0.315-0.503-0.488-0.813-0.522-0.788-0.084-1.326 0.316-1.614 1.203l-0.031 0.286-0.136 2.954c-0.096 2.235-0.289 4.821-0.581 7.759-0.924-2.634-2.358-5.456-4.304-8.465-0.802-1.293-1.43-2.193-1.882-2.7-0.45-0.532-0.854-0.816-1.212-0.855-0.668-0.072-1.132 0.204-1.392 0.828-0.173 0.488-0.307 1.174-0.402 2.057l-0.127 1.181-1.364 9.992c-9e-3 0.312 0.082 0.588 0.273 0.826 0.219 0.216 0.471 0.34 0.757 0.371 0.74 0.079 1.192-0.198 1.357-0.832 0.034-0.093 0.073-0.342 0.116-0.748l0.121-0.784 1.328-8.655z" fill="#00AAE0"/>
<path d="m165.58 222.92c2.247 0.197 3.414-0.195 3.5-1.176 0.042-0.478-0.254-0.817-0.887-1.017l-11.221-0.62c-0.336-5e-3 -0.661 0.123-0.973 0.385-0.288 0.264-0.444 0.539-0.47 0.826-0.054 0.622 0.289 0.965 1.031 1.03 1.315 0.115 2.778 0.182 4.391 0.203-0.288 1.637-0.547 3.771-0.777 6.401-0.193 2.199-0.357 4.486-0.492 6.859-0.058 0.669 0.223 1.031 0.845 1.086 0.358 0.031 0.69-0.048 0.996-0.238 0.332-0.212 0.512-0.486 0.542-0.82 0.075-0.861 0.122-1.531 0.14-2.012l0.199-2.693 0.815-8.493 2.361 0.279z" fill="#00AAE0"/>
<path d="m196.76 231.4c0.527 0.03 0.922 0.051 1.186 0.066 0.265-9e-3 0.457-0.011 0.577-4e-3 0.29-0.032 0.562-0.173 0.817-0.424 0.254-0.25 0.389-0.519 0.405-0.807 0.031-0.575-0.321-0.931-1.059-1.068-3.043-0.168-4.876-0.281-5.498-0.339-0.014-0.17 0.041-1.38 0.165-3.633 0.907 0.122 1.791 0.207 2.654 0.255 2.372 0.131 3.879 0.046 4.521-0.255 0.298-0.176 0.46-0.492 0.485-0.947 0.033-0.599-0.331-0.98-1.091-1.142l-0.036-2e-3 -6.284-0.455-1.007-0.056c-1.079-0.035-1.644 0.39-1.693 1.277-0.084 1.534-0.142 3.237-0.174 5.11-0.278 0.249-0.426 0.529-0.443 0.841-0.02 0.359 0.121 0.632 0.424 0.816l-0.33 5.967c-0.042 0.767-4e-3 1.382 0.115 1.846 0.118 0.463 0.477 0.711 1.076 0.744l7.049 0.317c0.935 0.052 1.43-0.425 1.486-1.432 0.029-0.527-0.302-0.846-0.993-0.956l-6.225-0.236c0.026-0.022 0.056-0.357 0.092-1.004l0.188-4.713 3.593 0.234z" fill="#00AAE0"/>
<path d="m211.96 228.95c1.909 2.326 3.712 5.25 5.409 8.77 0.068 0.122 0.202 0.391 0.403 0.807 0.201 0.415 0.497 0.883 0.886 1.401 0.321 0.42 0.781 0.641 1.381 0.663 1.007 0.036 1.533-0.569 1.579-1.816l0.306-13.39c0.015-0.408-0.105-0.748-0.359-1.022-0.253-0.297-0.536-0.451-0.848-0.463-0.791-0.029-1.299 0.409-1.524 1.314l-0.011 0.288 0.073 2.956c0.063 2.236 0.053 4.829-0.031 7.78-1.107-2.562-2.738-5.275-4.891-8.139-0.892-1.233-1.582-2.087-2.069-2.561-0.486-0.498-0.909-0.753-1.269-0.766-0.671-0.025-1.115 0.283-1.33 0.924-0.138 0.499-0.224 1.193-0.256 2.08l-0.043 1.187-0.654 10.063c0.013 0.313 0.123 0.581 0.331 0.805 0.233 0.2 0.493 0.306 0.781 0.316 0.744 0.027 1.175-0.281 1.295-0.925 0.027-0.095 0.048-0.347 0.063-0.754l0.065-0.791 0.713-8.727z" fill="#00AAE0"/>
<path d="m231.13 241.14c0.11 0.626 0.477 0.944 1.101 0.954 0.408 7e-3 0.77-0.131 1.087-0.414 0.316-0.283 0.478-0.616 0.484-1 0.67 0.107 1.246 0.165 1.726 0.172 2.135 0.036 3.811-0.441 5.028-1.429 1.241-1.011 1.877-2.477 1.909-4.397 0.043-2.615-1.069-5.058-3.336-7.328-2.219-2.269-4.576-3.424-7.072-3.465-0.911-0.015-1.471 0.432-1.678 1.34-0.13 0.598-0.203 1.365-0.218 2.301-0.01 0.6 0.016 1.969 0.076 4.106 0.075 2.714 0.208 4.852 0.398 6.415-0.172 0.238-0.259 0.452-0.262 0.644-5e-3 0.288 0.147 0.555 0.455 0.8l0.302 1.301zm1.747-14.229c2.194 0.9 3.913 2.153 5.159 3.757 1.246 1.605 1.852 3.404 1.819 5.395-0.026 1.584-1.443 2.353-4.25 2.306-1.248-0.02-1.992-0.056-2.231-0.108-0.191-1.54-0.339-3.427-0.447-5.661-0.079-2.473-0.115-3.914-0.108-4.322 0.012-0.744 0.032-1.2 0.058-1.367z" fill="#00AAE0"/>
<path d="m266.26 241.32c0.13 0.622 0.507 0.928 1.131 0.918 0.408-7e-3 0.766-0.157 1.073-0.45s0.457-0.632 0.451-1.016c0.673 0.085 1.25 0.124 1.73 0.116 2.136-0.036 3.795-0.567 4.978-1.595 1.207-1.052 1.795-2.538 1.763-4.457-0.043-2.616-1.235-5.021-3.575-7.214-2.293-2.195-4.687-3.271-7.183-3.23-0.912 0.015-1.456 0.48-1.633 1.395-0.11 0.602-0.157 1.371-0.142 2.307 0.01 0.599 0.081 1.966 0.212 4.101 0.165 2.709 0.368 4.842 0.61 6.398-0.164 0.243-0.245 0.461-0.242 0.652 5e-3 0.288 0.165 0.55 0.481 0.785l0.346 1.29zm1.276-14.279c2.222 0.828 3.982 2.023 5.28 3.585 1.298 1.563 1.963 3.34 1.996 5.332 0.026 1.584-1.364 2.399-4.172 2.445-1.248 0.021-1.992 9e-3 -2.233-0.035-0.241-1.532-0.452-3.413-0.633-5.642-0.161-2.47-0.245-3.909-0.251-4.316-0.013-0.744-8e-3 -1.201 0.013-1.369z" fill="#00AAE0"/>
<path d="m292.33 232.26c0.527-0.018 0.923-0.032 1.187-0.042 0.263-0.033 0.454-0.052 0.574-0.056 0.286-0.058 0.545-0.223 0.775-0.496 0.231-0.272 0.341-0.552 0.331-0.84-0.021-0.575-0.404-0.898-1.151-0.968-3.046 0.108-4.882 0.161-5.506 0.159-0.03-0.167-0.085-1.378-0.165-3.632 0.914 0.039 1.803 0.044 2.667 0.013 2.374-0.084 3.867-0.305 4.479-0.662 0.281-0.203 0.413-0.531 0.397-0.987-0.021-0.6-0.417-0.946-1.189-1.039l-0.036 2e-3 -6.3 0.114-1.007 0.036c-1.079 0.062-1.602 0.537-1.571 1.425 0.054 1.535 0.151 3.236 0.289 5.105-0.255 0.273-0.376 0.565-0.365 0.877 0.012 0.36 0.178 0.618 0.495 0.775l0.212 5.972c0.027 0.768 0.12 1.377 0.28 1.827 0.16 0.451 0.54 0.666 1.14 0.645l7.049-0.322c0.935-0.033 1.385-0.553 1.35-1.561-0.019-0.527-0.377-0.815-1.076-0.862l-6.22 0.328c0.023-0.025 0.023-0.361 0-1.009l-0.238-4.71 3.599-0.092z" fill="#00AAE0"/>
<path d="m317.9 223.61c-0.028-0.503-0.359-0.845-0.994-1.027-0.146-0.04-0.268-0.057-0.363-0.052-0.599 0.033-1.161 0.76-1.683 2.183-0.233 0.59-0.766 2.265-1.6 5.027-0.689 2.345-1.121 3.895-1.296 4.65-0.079-0.14-0.283-0.573-0.612-1.301-0.329-0.751-0.668-1.453-1.016-2.107-0.163-0.328-0.592-1.146-1.289-2.453l-1.445-2.697c-0.376-0.725-0.717-1.247-1.023-1.567-0.308-0.343-0.689-0.503-1.144-0.478-0.312 0.017-0.627 0.179-0.947 0.485-0.296 0.304-0.436 0.6-0.42 0.888l0.012 0.216c7e-3 0.143 0.053 0.309 0.135 0.497 0.105 0.162 0.25 0.395 0.435 0.697l0.592 0.941c1.98 3.233 3.772 6.548 5.376 9.945 0.626 1.336 1.179 1.991 1.658 1.964 0.623-0.034 1.079-0.479 1.369-1.336 0.839-2.666 1.491-5.034 1.954-7.102 0.512-2.071 0.988-3.684 1.43-4.837l0.572-1.402c0.214-0.492 0.313-0.87 0.299-1.134z" fill="#00AAE0"/>
<path d="m333.09 229.99c0.527-0.039 0.922-0.069 1.185-0.088 0.261-0.044 0.452-0.07 0.572-0.079 0.283-0.069 0.535-0.244 0.755-0.525s0.319-0.565 0.298-0.852c-0.043-0.575-0.439-0.882-1.188-0.923-3.039 0.225-4.871 0.349-5.495 0.372-0.037-0.166-0.138-1.374-0.305-3.624 0.915 5e-3 1.803-0.025 2.664-0.089 2.37-0.176 3.853-0.455 4.451-0.836 0.273-0.213 0.392-0.546 0.359-1.001-0.045-0.598-0.454-0.929-1.229-0.992l-0.036 3e-3 -6.291 0.358-1.005 0.075c-1.075 0.104-1.58 0.598-1.514 1.484 0.113 1.532 0.275 3.228 0.486 5.09-0.244 0.283-0.354 0.58-0.331 0.891 0.026 0.359 0.201 0.611 0.525 0.755l0.442 5.96c0.057 0.766 0.174 1.371 0.351 1.815 0.178 0.444 0.566 0.644 1.164 0.599l7.031-0.594c0.934-0.069 1.363-0.606 1.289-1.611-0.04-0.527-0.409-0.8-1.108-0.821l-6.203 0.569c0.022-0.026 9e-3 -0.362-0.039-1.008l-0.421-4.698 3.593-0.23z" fill="#00AAE0"/>
<path d="m350.43 236.67c1.386-0.126 2.573-0.318 3.562-0.576 0.491-0.165 0.707-0.571 0.649-1.216-0.074-0.813-0.505-1.183-1.294-1.111l-5.277 0.804c-0.206-1.475-0.357-2.739-0.453-3.791-0.087-0.956-0.109-2.665-0.068-5.126 0.068-1.91 0.073-3.309 0.017-4.195-0.035-0.383-0.205-0.668-0.512-0.857-0.306-0.189-0.686-0.263-1.14-0.222-0.909 0.082-1.336 0.422-1.281 1.02l0.693 10.42c0.193 2.127 0.407 3.686 0.642 4.677 0.104 0.352 0.455 0.501 1.052 0.447l3.41-0.274z" fill="#00AAE0"/>
<path d="m367.46 218.4c-2.266 0.247-3.975 1.073-5.126 2.478-1.126 1.402-1.557 3.32-1.292 5.754 0.267 2.457 1.128 4.488 2.583 6.092 1.451 1.58 3.179 2.261 5.183 2.043 1.861-0.203 3.283-1.227 4.265-3.072 1.003-1.872 1.377-3.977 1.123-6.315-0.255-2.338-0.993-4.129-2.215-5.372-1.224-1.267-2.731-1.803-4.521-1.608zm1.314 13.727c-1.407 0.153-2.602-0.393-3.582-1.638-0.954-1.224-1.517-2.623-1.689-4.198-0.171-1.575 0.079-2.821 0.752-3.739 0.67-0.942 1.697-1.489 3.081-1.639 1.36-0.149 2.362 0.189 3.007 1.012 0.666 0.796 1.106 2.173 1.319 4.129 0.21 1.933-0.098 3.536-0.925 4.809-0.497 0.754-1.152 1.175-1.963 1.264z" fill="#00AAE0"/>
<path d="m386.32 215.99c-2.714 0.349-4.03 1.026-3.949 2.032l1.726 13.426c0.07 0.547 0.229 0.938 0.477 1.173 0.245 0.21 0.677 0.276 1.296 0.196 0.642-0.083 0.952-0.401 0.929-0.954-0.074-0.959-0.156-1.783-0.245-2.473-0.141-1.095-0.343-2.388-0.607-3.878 0.607 0.018 1.232-0.014 1.875-0.096 1.5-0.193 2.647-0.679 3.442-1.459 1.095-1.084 1.517-2.602 1.266-4.554-0.162-1.262-0.815-2.195-1.957-2.798-1.121-0.63-2.539-0.835-4.253-0.615zm-1.317 2.747c0.607-0.175 1.065-0.282 1.375-0.322 0.571-0.074 1.189-0.068 1.853 0.016 1.132 0.145 1.761 0.523 1.888 1.136l0.041 0.322c0.132 1.023-0.121 1.782-0.76 2.275-0.463 0.35-1.194 0.589-2.194 0.718-0.619 0.079-1.195 0.117-1.728 0.113l-0.193-1.5c-0.162-1.261-0.256-2.181-0.282-2.758z" fill="#00AAE0"/>
<path d="m408.3 221.62c0.523-0.077 0.914-0.134 1.176-0.173 0.257-0.062 0.445-0.102 0.564-0.119 0.278-0.089 0.517-0.282 0.716-0.578s0.278-0.587 0.236-0.872c-0.084-0.569-0.501-0.848-1.251-0.835-3.016 0.443-4.834 0.698-5.455 0.765-0.048-0.163-0.236-1.361-0.563-3.593 0.912-0.061 1.796-0.154 2.651-0.28 2.351-0.345 3.811-0.729 4.379-1.152 0.257-0.232 0.353-0.573 0.286-1.024-0.087-0.594-0.519-0.894-1.296-0.902l-0.036 6e-3 -6.249 0.808-0.997 0.146c-1.065 0.181-1.533 0.71-1.404 1.589 0.223 1.52 0.506 3.2 0.849 5.042-0.223 0.3-0.312 0.604-0.266 0.912 0.052 0.357 0.245 0.595 0.578 0.716l0.868 5.913c0.111 0.76 0.271 1.355 0.48 1.785s0.61 0.602 1.204 0.514l6.97-1.096c0.927-0.136 1.316-0.702 1.17-1.699-0.077-0.523-0.465-0.769-1.164-0.739l-6.146 1.011c0.02-0.027-0.017-0.361-0.111-1.002l-0.756-4.656 3.567-0.487z" fill="#00AAE0"/>
<path d="m424.32 225.92c-0.424-2.12-0.705-3.52-0.843-4.203 1.081 0.502 2.325 1.184 3.733 2.045 1.384 0.866 2.263 1.474 2.638 1.826 0.512 0.45 0.946 0.646 1.301 0.587 0.095-0.016 0.243-0.077 0.444-0.183 0.537-0.284 0.762-0.686 0.676-1.207-0.122-0.734-0.857-1.573-2.205-2.517-1.396-0.937-2.892-1.747-4.49-2.431 0.186-0.055 0.719-0.435 1.6-1.141 0.88-0.705 1.53-1.263 1.948-1.673 0.478-0.492 0.877-1.094 1.198-1.804 0.344-0.713 0.474-1.319 0.392-1.816-0.18-1.089-0.911-1.905-2.193-2.447-1.286-0.565-2.686-0.722-4.202-0.471-1.539 0.254-2.723 0.67-3.552 1.245s-1.181 1.241-1.056 1.999c1.303 7.861 2.081 12.269 2.337 13.224 0.078 0.474 0.378 0.667 0.899 0.581 0.402-0.067 0.748-0.258 1.036-0.573 0.289-0.315 0.403-0.651 0.344-1.006l-5e-3 -0.035zm-1.366-7.364c-0.416-2.51-0.675-4.146-0.776-4.907 0.817-0.355 1.675-0.606 2.575-0.755 0.852-0.141 1.639-0.089 2.361 0.156 0.742 0.218 1.161 0.623 1.259 1.215 0.039 0.674-0.658 1.532-2.091 2.572-1.461 1.02-2.57 1.593-3.328 1.719z" fill="#00AAE0"/>
</svg>
