<svg viewBox="0 0 985 332" xmlns="http://www.w3.org/2000/svg">
    <path d="m263.9 146.49c-4.558-0.571-7.994-2.372-10.307-5.402-2.603-3.35-3.546-7.885-2.829-13.606 0.338-2.697 1.101-5.767 2.288-9.209l24.253-69.664 21.498-0.2101-26.069 75.106c-0.524 1.162-0.902 2.674-1.135 4.534-0.245 1.954 0.024 3.381 0.809 4.283 0.831 0.907 2.27 1.489 4.316 1.745 1.396 0.175 2.782 0.042 4.161-0.399 1.43-0.482 2.773-1.211 4.03-2.188 2.564-1.993 4.664-4.8 6.299-8.422l6 0.752c-3.462 6.889-7.391 12.23-11.788 16.025-3.693 3.081-7.682 5.131-11.968 6.153-3.116 0.743-6.303 0.911-9.558 0.502z" fill="#00AAE0"/>
    <path d="m325.55 72.306c-1.539-0.1549-2.98-0.5827-4.323-1.2832-1.338-0.7472-2.468-1.6854-3.391-2.8148-0.928-1.0827-1.624-2.3542-2.09-3.8144-0.418-1.4555-0.55-2.9528-0.395-4.4919 0.154-1.5391 0.582-2.9801 1.283-4.3229 0.747-1.3381 1.688-2.4919 2.822-3.4613s2.428-1.6635 3.884-2.0824c1.46-0.4654 2.96-0.6207 4.499-0.4657 1.539 0.1549 2.978 0.606 4.316 1.3531 1.343 0.7006 2.496 1.6412 3.461 2.8219s1.657 2.4988 2.075 3.9543c0.466 1.4602 0.621 2.9599 0.466 4.4989-0.155 1.5391-0.606 2.9778-1.353 4.3159-0.701 1.3428-1.636 2.45-2.808 3.3214-1.176 0.9181-2.494 1.6098-3.954 2.0753-1.456 0.4188-2.953 0.5508-4.492 0.3958zm-17.802 79.264c-4.571-0.46-8.049-2.177-10.436-5.149-2.684-3.286-3.737-7.797-3.16-13.533 0.272-2.705 0.96-5.793 2.063-9.262l14.352-44.984 20.637 2.0776-15.185 47.656c-0.495 1.175-0.837 2.695-1.025 4.561-0.197 1.958 0.108 3.379 0.914 4.261 0.853 0.887 2.305 1.433 4.358 1.64 1.399 0.141 2.782-0.026 4.149-0.501 1.418-0.517 2.743-1.279 3.975-2.285 2.516-2.055 4.546-4.913 6.093-8.574l6.016 0.606c-3.293 6.971-7.091 12.407-11.394 16.308-3.617 3.169-7.555 5.317-11.814 6.443-3.097 0.819-6.279 1.064-9.543 0.735z" fill="#00AAE0"/>
    <path d="m389.36 158.22c-5.94-0.395-10.224-2.372-12.853-5.93-2.285-3.065-3.277-6.865-2.975-11.402 0.144-2.152 0.567-4.637 1.272-7.456 0.751-2.815 1.814-6.432 3.189-10.851 1.381-4.512 2.419-8.107 3.115-10.785 0.745-2.722 1.184-5.089 1.318-7.1 0.327-4.9112-1.24-7.482-4.701-7.7125-2.432-0.1621-4.762 0.9746-6.992 3.4095-1.877 2.083-3.582 5.117-5.116 9.102l-12.822 45.444-20.697-1.379 20.01-70.826 20.696 1.3787-2.038 7.3338c3.015-2.9467 6.178-4.944 9.489-5.9919 2.448-0.7765 5.051-1.0728 7.811-0.889 4.864 0.3241 8.615 1.8424 11.253 4.555 2.81 2.9589 4.031 7.1979 3.663 12.717-0.221 3.321-1.117 7.607-2.689 12.858-0.43 1.521-1.122 3.801-2.076 6.838-1.702 5.101-2.96 9.175-3.774 12.221-0.505 1.94-0.798 3.517-0.879 4.733-0.128 1.918 0.194 3.443 0.964 4.575 0.82 1.088 2.282 1.702 4.387 1.842 2.853 0.19 5.34-0.819 7.46-3.026 1.615-1.678 3.433-4.634 5.453-8.868l6.034 0.402c-4.256 10.286-9.237 17.354-14.943 21.202-4.034 2.738-8.554 3.94-13.559 3.606z" fill="#00AAE0"/>
    <path d="m432.9 160.27c-5.483-0.123-9.873-1.933-13.171-5.429-3.846-4.119-5.679-10.162-5.5-18.128 0.076-3.375 0.507-6.928 1.294-10.662 0.74-3.734 1.808-7.414 3.202-11.04 3.184-8.18 7.434-14.743 12.75-19.687 6.128-5.6295 13.105-8.3564 20.931-8.1806 3.889 0.0873 6.78 0.8321 8.671 2.2342 1.938 1.3564 2.883 3.1359 2.834 5.3384l-0.013 0.5624 7.773-32.951 21.364-2.4039-18.265 77.375c-0.453 1.397-0.699 2.938-0.737 4.626-0.044 1.968 0.394 3.361 1.313 4.178 0.919 0.818 2.41 1.25 4.472 1.296 2.671 0.06 5.088-1.081 7.25-3.424 1.829-2.068 3.397-5.081 4.705-9.037l6.045 0.136c-2.693 7.16-5.937 12.784-9.733 16.872-3.218 3.397-6.763 5.732-10.636 7.005-2.787 0.922-5.821 1.346-9.102 1.272-3.983-0.089-7.169-1.216-9.559-3.379-2.389-2.164-3.82-5.267-4.292-9.31-2.665 3.832-5.521 6.769-8.567 8.81-3.953 2.725-8.296 4.034-13.029 3.927zm9.662-13.708c1.031 0.023 2.138-0.21 3.321-0.699 1.23-0.488 2.394-1.189 3.493-2.102 2.582-2.239 4.337-5.201 5.264-8.884l0.017-0.773 7.77-32.811c-0.299-1.3192-0.744-2.3841-1.335-3.1945-0.957-1.2405-2.443-1.8834-4.458-1.9287-1.921-0.0431-3.81 0.5475-5.666 1.7717-1.809 1.2253-3.536 2.9445-5.18 5.1585-2.903 4.014-5.342 9.281-7.317 15.801-0.909 2.886-1.606 5.754-2.092 8.603-0.485 2.803-0.754 5.352-0.805 7.648-0.107 4.78 0.71 8.034 2.453 9.761 0.595 0.67 1.265 1.107 2.01 1.311 0.746 0.204 1.587 0.317 2.525 0.338z" fill="#00AAE0"/>
    <path d="m514.16 161.2c-5.483 0.123-9.95-1.488-13.4-4.833-4.027-3.942-6.13-9.896-6.309-17.863-0.076-3.374 0.195-6.944 0.814-10.709 0.572-3.763 1.473-7.488 2.703-11.173 2.814-8.315 6.765-15.061 11.854-20.24 5.869-5.8989 12.716-8.9362 20.542-9.1119 3.89-0.0873 6.811 0.527 8.763 1.8428 1.997 1.268 3.021 3.0033 3.07 5.2059l0.024 1.0544 1.375-7.6969 20.737-0.4656-9.235 49.157c-0.39 1.416-0.567 2.967-0.529 4.654 0.093 4.124 2.107 6.142 6.044 6.053 2.624-0.059 4.984-1.448 7.08-4.167 1.777-2.291 3.205-5.511 4.284-9.661l6.046-0.136c-2.414 7.368-5.4 13.226-8.96 17.573-3.014 3.584-6.448 6.193-10.303 7.827-2.834 1.188-5.844 1.819-9.03 1.89-4.077 0.092-7.359-0.936-9.846-3.084-2.44-2.196-3.967-5.467-4.58-9.814-2.632 3.904-5.423 6.967-8.374 9.19-3.78 2.898-8.036 4.401-12.77 4.507zm9.037-14.128c1.078-0.025 2.196-0.331 3.355-0.92 1.206-0.589 2.36-1.412 3.461-2.469 2.476-2.493 4.092-5.695 4.849-9.603l6.159-32.631c-0.01-0.469-0.14-1.005-0.388-1.6089-0.202-0.6518-0.497-1.2547-0.884-1.8087-1.155-1.3338-2.741-1.978-4.756-1.9328-1.921 0.0432-3.781 0.7179-5.581 2.0243-1.752 1.3052-3.4 3.1001-4.942 5.3861-2.721 4.14-4.921 9.511-6.601 16.113-0.779 2.924-1.347 5.821-1.704 8.689-0.359 2.821-0.512 5.38-0.461 7.676 0.108 4.78 1.071 7.994 2.889 9.641 0.624 0.642 1.313 1.049 2.067 1.219 0.754 0.171 1.6 0.246 2.537 0.225z" fill="#00AAE0"/>
    <path d="m567.13 195.2c-2.153 0.123-4.257-0.132-6.312-0.766-2.102-0.631-3.987-1.58-5.656-2.846-1.721-1.357-3.104-2.968-4.15-4.833-1.043-1.819-1.628-3.851-1.757-6.097-0.184-3.23 0.29-6.027 1.422-8.392 1.086-2.363 2.75-4.453 4.994-6.272 1.976-1.568 4.313-2.993 7.01-4.274 2.653-1.232 6.003-2.573 10.052-4.026l12.715-83.126c1.256-9.2274 4.597-16.086 10.022-20.574 3.9-3.2278 8.822-5.0116 14.765-5.3513 2.153-0.1231 4.257 0.1323 6.312 0.7661 2.102 0.631 3.987 1.5797 5.656 2.8459 1.721 1.3571 3.081 2.9697 4.08 4.8376 1.043 1.8184 1.628 3.8508 1.757 6.0972 0.128 2.2463 0.1 4.2199-0.085 5.9207l-6.739 0.3851c0.105-1.4614 0.125-2.7537 0.061-3.8769-0.091-1.5911-0.699-2.7772-1.824-3.558-1.077-0.7835-2.388-1.1312-3.933-1.0429-1.918 0.1097-3.677 0.9614-5.277 2.5553-2.131 2.1407-3.493 5.4113-4.087 9.8117l-1.807 11.512 10.53-0.6018-0.724 5.8164-10.6 0.6059-12.129 78.586c-1.304 9.23-4.551 16.083-9.741 20.558-3.807 3.222-8.659 5.002-14.555 5.339zm-4.03-12.587c1.685-0.096 3.16-0.979 4.427-2.648 1.393-1.91 2.418-4.927 3.074-9.049l1.418-8.462c-5.005 1.976-8.665 4.063-10.981 6.262-2.85 2.698-4.173 5.849-3.967 9.452 0.072 1.264 0.671 2.286 1.795 3.067 1.325 1.004 2.737 1.463 4.234 1.378z" fill="#00AAE0"/>
    <path d="m636.4 155.74c-4.575 0.417-8.316-0.607-11.224-3.072-3.26-2.715-5.152-6.944-5.675-12.686-0.247-2.707-0.159-5.869 0.265-9.485l5.539-46.892 20.657-1.883-5.851 49.674c-0.148 1.473-0.165 2.839-0.05 4.1 0.358 3.921 1.96 5.752 4.808 5.492 2.614-0.238 4.863-1.644 6.746-4.216 1.498-2.16 2.692-5.329 3.582-9.505l5.539-46.892 20.657-1.883-5.851 49.674c-0.292 1.439-0.362 2.998-0.209 4.679 0.179 1.961 0.772 3.295 1.778 4.004 1.005 0.708 2.535 0.969 4.589 0.781 2.661-0.242 4.934-1.65 6.817-4.222 1.676-2.271 2.893-5.441 3.652-9.511l6.022-0.549c-1.904 7.516-4.483 13.564-7.737 18.144-2.761 3.782-6.009 6.62-9.744 8.514-2.745 1.38-5.705 2.214-8.879 2.504-4.108 0.374-7.48-0.472-10.116-2.538s-4.415-5.316-5.337-9.751c-2.791 5.526-6.139 9.597-10.042 12.212-2.796 1.856-6.109 2.958-9.936 3.307z" fill="#00AAE0"/>
    <path d="m714.19 147.79c-4.558 0.572-8.332-0.325-11.321-2.691-3.35-2.603-5.384-6.765-6.101-12.486-0.338-2.698-0.357-5.861-0.056-9.489l6.305-73.496 20.78-5.5107-6.721 79.217c-0.22 1.256-0.214 2.814 0.019 4.674 0.245 1.954 0.859 3.27 1.842 3.95 1.029 0.674 2.567 0.883 4.614 0.627 1.395-0.175 2.706-0.647 3.933-1.415 1.267-0.82 2.388-1.858 3.365-3.114 1.993-2.565 3.335-5.804 4.025-9.717l6-0.753c-1.654 7.53-4.143 13.677-7.467 18.44-2.818 3.896-6.178 6.869-10.078 8.917-2.837 1.489-5.883 2.438-9.139 2.846z" fill="#00AAE0"/>
    <path d="m258.9 146.49c-4.558-0.571-7.994-2.372-10.307-5.402-2.603-3.35-3.546-7.885-2.829-13.606 0.338-2.697 1.101-5.767 2.288-9.209l24.253-69.664 21.498-0.2101-26.069 75.106c-0.524 1.162-0.902 2.674-1.135 4.534-0.245 1.954 0.024 3.381 0.809 4.283 0.831 0.907 2.27 1.489 4.316 1.745 1.396 0.175 2.782 0.042 4.161-0.399 1.43-0.482 2.773-1.211 4.03-2.188 2.564-1.993 4.664-4.8 6.299-8.422l6 0.752c-3.462 6.889-7.391 12.23-11.788 16.025-3.693 3.081-7.682 5.131-11.968 6.153-3.116 0.743-6.303 0.911-9.558 0.502z" fill="#fff"/>
    <path d="m320.55 72.306c-1.539-0.1549-2.98-0.5827-4.323-1.2832-1.338-0.7472-2.468-1.6854-3.391-2.8148-0.928-1.0827-1.624-2.3542-2.09-3.8144-0.418-1.4555-0.55-2.9528-0.395-4.4919 0.154-1.5391 0.582-2.9801 1.283-4.3229 0.747-1.3381 1.688-2.4919 2.822-3.4613s2.428-1.6635 3.884-2.0824c1.46-0.4654 2.96-0.6207 4.499-0.4657 1.539 0.1549 2.978 0.606 4.316 1.3531 1.343 0.7006 2.496 1.6412 3.461 2.8219s1.657 2.4988 2.075 3.9543c0.466 1.4602 0.621 2.9599 0.466 4.4989-0.155 1.5391-0.606 2.9778-1.353 4.3159-0.701 1.3428-1.636 2.45-2.808 3.3214-1.176 0.9181-2.494 1.6098-3.954 2.0753-1.456 0.4188-2.953 0.5508-4.492 0.3958zm-17.802 79.264c-4.571-0.46-8.049-2.177-10.436-5.149-2.684-3.286-3.737-7.797-3.16-13.533 0.272-2.705 0.96-5.793 2.063-9.262l14.352-44.984 20.637 2.0776-15.185 47.656c-0.495 1.175-0.837 2.695-1.025 4.561-0.197 1.958 0.108 3.379 0.914 4.261 0.853 0.887 2.305 1.433 4.358 1.64 1.399 0.141 2.782-0.026 4.149-0.501 1.418-0.517 2.743-1.279 3.975-2.285 2.516-2.055 4.546-4.913 6.093-8.574l6.016 0.606c-3.293 6.971-7.091 12.407-11.394 16.308-3.617 3.169-7.555 5.317-11.814 6.443-3.097 0.819-6.279 1.064-9.543 0.735z" fill="#fff"/>
    <path d="m384.36 158.22c-5.94-0.395-10.224-2.372-12.853-5.93-2.285-3.065-3.277-6.865-2.975-11.402 0.144-2.152 0.567-4.637 1.272-7.456 0.751-2.815 1.814-6.432 3.189-10.851 1.381-4.512 2.419-8.107 3.115-10.785 0.745-2.722 1.184-5.089 1.318-7.1 0.327-4.9112-1.24-7.482-4.701-7.7125-2.432-0.1621-4.762 0.9746-6.992 3.4095-1.877 2.083-3.582 5.117-5.116 9.102l-12.822 45.444-20.697-1.379 20.01-70.826 20.696 1.3787-2.038 7.3338c3.015-2.9467 6.178-4.944 9.489-5.9919 2.448-0.7765 5.051-1.0728 7.811-0.889 4.864 0.3241 8.615 1.8424 11.253 4.555 2.81 2.9589 4.031 7.1979 3.663 12.717-0.221 3.321-1.117 7.607-2.689 12.858-0.43 1.521-1.122 3.801-2.076 6.838-1.702 5.101-2.96 9.175-3.774 12.221-0.505 1.94-0.798 3.517-0.879 4.733-0.128 1.918 0.194 3.443 0.964 4.575 0.82 1.088 2.282 1.702 4.387 1.842 2.853 0.19 5.34-0.819 7.46-3.026 1.615-1.678 3.433-4.634 5.453-8.868l6.034 0.402c-4.256 10.286-9.237 17.354-14.943 21.202-4.034 2.738-8.554 3.94-13.559 3.606z" fill="#fff"/>
    <path d="m427.9 160.27c-5.483-0.123-9.873-1.933-13.171-5.429-3.846-4.119-5.679-10.162-5.5-18.128 0.076-3.375 0.507-6.928 1.294-10.662 0.74-3.734 1.808-7.414 3.202-11.04 3.184-8.18 7.434-14.743 12.75-19.687 6.128-5.6295 13.105-8.3564 20.931-8.1806 3.889 0.0873 6.78 0.8321 8.671 2.2342 1.938 1.3564 2.883 3.1359 2.834 5.3384l-0.013 0.5624 7.773-32.951 21.364-2.4039-18.265 77.375c-0.453 1.397-0.699 2.938-0.737 4.626-0.044 1.968 0.394 3.361 1.313 4.178 0.919 0.818 2.41 1.25 4.472 1.296 2.671 0.06 5.088-1.081 7.25-3.424 1.829-2.068 3.397-5.081 4.705-9.037l6.045 0.136c-2.693 7.16-5.937 12.784-9.733 16.872-3.218 3.397-6.763 5.732-10.636 7.005-2.787 0.922-5.821 1.346-9.102 1.272-3.983-0.089-7.169-1.216-9.559-3.379-2.389-2.164-3.82-5.267-4.292-9.31-2.665 3.832-5.521 6.769-8.567 8.81-3.953 2.725-8.296 4.034-13.029 3.927zm9.662-13.708c1.031 0.023 2.138-0.21 3.321-0.699 1.23-0.488 2.394-1.189 3.493-2.102 2.582-2.239 4.337-5.201 5.264-8.884l0.017-0.773 7.77-32.811c-0.299-1.3192-0.744-2.3841-1.335-3.1945-0.957-1.2405-2.443-1.8834-4.458-1.9287-1.921-0.0431-3.81 0.5475-5.666 1.7717-1.809 1.2253-3.536 2.9445-5.18 5.1585-2.903 4.014-5.342 9.281-7.317 15.801-0.909 2.886-1.606 5.754-2.092 8.603-0.485 2.803-0.754 5.352-0.805 7.648-0.107 4.78 0.71 8.034 2.453 9.761 0.595 0.67 1.265 1.107 2.01 1.311 0.746 0.204 1.587 0.317 2.525 0.338z" fill="#fff"/>
    <path d="m509.16 161.2c-5.483 0.123-9.95-1.488-13.4-4.833-4.027-3.942-6.13-9.896-6.309-17.863-0.076-3.374 0.195-6.944 0.814-10.709 0.572-3.763 1.473-7.488 2.703-11.173 2.814-8.315 6.765-15.061 11.854-20.24 5.869-5.8989 12.716-8.9362 20.542-9.1119 3.89-0.0873 6.811 0.527 8.763 1.8428 1.997 1.268 3.021 3.0033 3.07 5.2059l0.024 1.0544 1.375-7.6969 20.737-0.4656-9.235 49.157c-0.39 1.416-0.567 2.967-0.529 4.654 0.093 4.124 2.107 6.142 6.044 6.053 2.624-0.059 4.984-1.448 7.08-4.167 1.777-2.291 3.205-5.511 4.284-9.661l6.046-0.136c-2.414 7.368-5.4 13.226-8.96 17.573-3.014 3.584-6.448 6.193-10.303 7.827-2.834 1.188-5.844 1.819-9.03 1.89-4.077 0.092-7.359-0.936-9.846-3.084-2.44-2.196-3.967-5.467-4.58-9.814-2.632 3.904-5.423 6.967-8.374 9.19-3.78 2.898-8.036 4.401-12.77 4.507zm9.037-14.128c1.078-0.025 2.196-0.331 3.355-0.92 1.206-0.589 2.36-1.412 3.461-2.469 2.476-2.493 4.092-5.695 4.849-9.603l6.159-32.631c-0.01-0.469-0.14-1.005-0.388-1.6089-0.202-0.6518-0.497-1.2547-0.884-1.8087-1.155-1.3338-2.741-1.978-4.756-1.9328-1.921 0.0432-3.781 0.7179-5.581 2.0243-1.752 1.3052-3.4 3.1001-4.942 5.3861-2.721 4.14-4.921 9.511-6.601 16.113-0.779 2.924-1.347 5.821-1.704 8.689-0.359 2.821-0.512 5.38-0.461 7.676 0.108 4.78 1.071 7.994 2.889 9.641 0.624 0.642 1.313 1.049 2.067 1.219 0.754 0.171 1.6 0.246 2.537 0.225z" fill="#fff"/>
    <path d="m562.13 195.2c-2.153 0.123-4.257-0.132-6.312-0.766-2.102-0.631-3.987-1.58-5.656-2.846-1.721-1.357-3.104-2.968-4.15-4.833-1.043-1.819-1.628-3.851-1.757-6.097-0.184-3.23 0.29-6.027 1.422-8.392 1.086-2.363 2.75-4.453 4.994-6.272 1.976-1.568 4.313-2.993 7.01-4.274 2.653-1.232 6.003-2.573 10.052-4.026l12.715-83.126c1.256-9.2274 4.597-16.086 10.022-20.574 3.9-3.2278 8.822-5.0116 14.765-5.3513 2.153-0.1231 4.257 0.1323 6.312 0.7661 2.102 0.631 3.987 1.5797 5.656 2.8459 1.721 1.3571 3.081 2.9697 4.08 4.8376 1.043 1.8184 1.628 3.8508 1.757 6.0972 0.128 2.2463 0.1 4.2199-0.085 5.9207l-6.739 0.3851c0.105-1.4614 0.125-2.7537 0.061-3.8769-0.091-1.5911-0.699-2.7772-1.824-3.558-1.077-0.7835-2.388-1.1312-3.933-1.0429-1.918 0.1097-3.677 0.9614-5.277 2.5553-2.131 2.1407-3.493 5.4113-4.087 9.8117l-1.807 11.512 10.53-0.6018-0.724 5.8164-10.6 0.6059-12.129 78.586c-1.304 9.23-4.551 16.083-9.741 20.558-3.807 3.222-8.659 5.002-14.555 5.339zm-4.03-12.587c1.685-0.096 3.16-0.979 4.427-2.648 1.393-1.91 2.418-4.927 3.074-9.049l1.418-8.462c-5.005 1.976-8.665 4.063-10.981 6.262-2.85 2.698-4.173 5.849-3.967 9.452 0.072 1.264 0.671 2.286 1.795 3.067 1.325 1.004 2.737 1.463 4.234 1.378z" fill="#fff"/>
    <path d="m631.4 155.74c-4.575 0.417-8.316-0.607-11.224-3.072-3.26-2.715-5.152-6.944-5.675-12.686-0.247-2.707-0.159-5.869 0.265-9.485l5.539-46.892 20.657-1.883-5.851 49.674c-0.148 1.473-0.165 2.839-0.05 4.1 0.358 3.921 1.96 5.752 4.808 5.492 2.614-0.238 4.863-1.644 6.746-4.216 1.498-2.16 2.692-5.329 3.582-9.505l5.539-46.892 20.657-1.883-5.851 49.674c-0.292 1.439-0.362 2.998-0.209 4.679 0.179 1.961 0.772 3.295 1.778 4.004 1.005 0.708 2.535 0.969 4.589 0.781 2.661-0.242 4.934-1.65 6.817-4.222 1.676-2.271 2.893-5.441 3.652-9.511l6.022-0.549c-1.904 7.516-4.483 13.564-7.737 18.144-2.761 3.782-6.009 6.62-9.744 8.514-2.745 1.38-5.705 2.214-8.879 2.504-4.108 0.374-7.48-0.472-10.116-2.538s-4.415-5.316-5.337-9.751c-2.791 5.526-6.139 9.597-10.042 12.212-2.796 1.856-6.109 2.958-9.936 3.307z" fill="#fff"/>
    <path d="m709.19 147.79c-4.558 0.572-8.332-0.325-11.321-2.691-3.35-2.603-5.384-6.765-6.101-12.486-0.338-2.698-0.357-5.861-0.056-9.489l6.305-73.496 20.78-5.5107-6.721 79.217c-0.22 1.256-0.214 2.814 0.019 4.674 0.245 1.954 0.859 3.27 1.842 3.95 1.029 0.674 2.567 0.883 4.614 0.627 1.395-0.175 2.706-0.647 3.933-1.415 1.267-0.82 2.388-1.858 3.365-3.114 1.993-2.565 3.335-5.804 4.025-9.717l6-0.753c-1.654 7.53-4.143 13.677-7.467 18.44-2.818 3.896-6.178 6.869-10.078 8.917-2.837 1.489-5.883 2.438-9.139 2.846z" fill="#fff"/>
    <path d="m318.95 211.48c0.355 0.061 0.659-8e-3 0.913-0.208s0.409-0.466 0.466-0.797-1e-3 -0.633-0.173-0.906c-0.149-0.269-0.341-0.424-0.578-0.465l-4.612-0.793 0.658-3.832c1.313 0.299 2.383 0.52 3.211 0.662 1.206 0.207 1.936 0.284 2.188 0.23 0.237 0.041 0.533 0.018 0.889-0.067 0.394-0.029 0.642-0.34 0.744-0.931 0.13-0.757-0.491-1.253-1.863-1.489-2.743-0.472-4.499-0.81-5.268-1.015-0.721-0.197-1.247-0.324-1.578-0.381-0.284-0.049-0.598 0.08-0.943 0.386-0.262 0.247-0.409 0.465-0.441 0.654-0.143 0.828 0.088 1.331 0.69 1.507-0.045 0.406-0.261 1.733-0.647 3.98l-0.964 5.606c-0.284 1.656-0.428 2.629-0.429 2.921-0.036 0.919 0.312 1.442 1.045 1.568 0.734 0.126 1.196-0.367 1.387-1.478 0.23-1.763 0.532-3.732 0.906-5.908l4.399 0.756z" fill="#00AAE0"/>
    <path d="m340.53 207.27c0.078 1.396-0.084 3.411-0.486 6.044-0.674 4.413-2.304 6.422-4.89 6.027-1.163-0.178-2.022-0.989-2.578-2.433-0.533-1.441-0.724-3.133-0.572-5.077 0.097-0.956 0.193-1.743 0.287-2.359 0.2-1.305 0.444-2.506 0.733-3.603 0.07-0.305 0.025-0.567-0.135-0.785-0.161-0.219-0.396-0.352-0.704-0.399-0.309-0.047-0.647 0.022-1.015 0.209-0.365 0.163-0.583 0.396-0.654 0.701-0.31 1.239-0.542 2.357-0.694 3.354-0.392 2.562-0.442 4.958-0.151 7.187 0.206 1.513 0.742 2.772 1.608 3.778 0.893 0.987 2.063 1.59 3.51 1.811 2.041 0.312 3.629 8e-3 4.765-0.911 1.163-0.939 2.003-2.546 2.521-4.822 0.169-0.63 0.335-1.479 0.498-2.546 0.29-1.898 0.492-4.016 0.606-6.353 0.016-0.265-0.081-0.499-0.293-0.701-0.188-0.199-0.449-0.323-0.781-0.374-0.356-0.054-0.692 3e-3 -1.01 0.174-0.32 0.193-0.504 0.444-0.552 0.753l-0.013 0.325z" fill="#00AAE0"/>
    <path d="m354.13 224.54c1.38 0.186 2.58 0.263 3.602 0.231 0.515-0.052 0.816-0.399 0.903-1.041 0.108-0.809-0.23-1.266-1.014-1.372l-5.324-0.39c0.127-1.484 0.261-2.749 0.402-3.796 0.128-0.951 0.487-2.622 1.075-5.013 0.491-1.847 0.807-3.209 0.95-4.086 0.051-0.381-0.052-0.697-0.308-0.95-0.257-0.252-0.611-0.409-1.063-0.47-0.904-0.121-1.396 0.115-1.476 0.71l-1.643 10.313c-0.285 2.116-0.424 3.684-0.415 4.702 0.023 0.367 0.332 0.59 0.927 0.67l3.384 0.492z" fill="#00AAE0"/>
    <path d="m370.06 226.56c1.382 0.165 2.584 0.224 3.604 0.177 0.515-0.059 0.811-0.411 0.888-1.054 0.097-0.81-0.248-1.262-1.035-1.356l-5.328-0.311c0.105-1.486 0.22-2.753 0.345-3.802 0.114-0.953 0.447-2.629 1-5.029 0.463-1.854 0.76-3.22 0.889-4.099 0.045-0.381-0.062-0.696-0.322-0.945-0.261-0.249-0.617-0.4-1.07-0.454-0.906-0.108-1.394 0.135-1.465 0.731l-1.489 10.336c-0.254 2.121-0.369 3.691-0.345 4.709 0.028 0.366 0.341 0.584 0.936 0.656l3.392 0.441z" fill="#00AAE0"/>
    <path d="m408.06 215.97c0.062-0.693-0.331-1.283-1.179-1.768-0.846-0.509-2.082-0.837-3.707-0.982-1.674-0.149-3.108 0.132-4.304 0.845-1.218 0.686-1.877 1.591-1.978 2.715-0.098 1.099 0.136 1.988 0.702 2.665 0.522 0.625 1.226 1.109 2.111 1.453l1.298 0.441c0.985 0.305 1.754 0.591 2.309 0.857 0.58 0.245 1.057 0.576 1.429 0.995s0.529 0.951 0.472 1.597c-0.073 0.812-0.418 1.444-1.037 1.895-0.595 0.453-1.394 0.634-2.398 0.545-0.598-0.054-1.969-0.622-4.113-1.705-0.139-0.061-0.244-0.094-0.316-0.101-0.311-0.027-0.598 0.092-0.863 0.357-0.263 0.242-0.409 0.53-0.439 0.865-0.066 0.741 0.44 1.412 1.519 2.015 1.079 0.602 2.395 0.973 3.949 1.111 1.577 0.141 2.965-0.156 4.164-0.893 1.224-0.758 1.914-2.009 2.07-3.754 0.066-0.741 0.027-1.384-0.117-1.927-0.118-0.564-0.277-0.952-0.475-1.162-0.217-0.261-0.495-0.526-0.832-0.798-0.333-0.318-1.13-0.703-2.391-1.153-1.285-0.452-2.327-0.919-3.128-1.4-0.87-0.511-1.28-1.042-1.231-1.592 0.049-0.549 0.46-0.97 1.233-1.263 0.776-0.316 1.51-0.443 2.203-0.381 0.741 0.066 1.489 0.325 2.244 0.778 0.802 0.458 1.395 0.703 1.777 0.737 0.215 0.02 0.427-0.058 0.635-0.232 0.235-0.196 0.366-0.449 0.393-0.76z" fill="#00AAE0"/>
    <path d="m426.33 217.35c2.25 0.158 3.41-0.254 3.478-1.236 0.034-0.479-0.267-0.813-0.904-1.002l-11.229-0.426c-0.337 1e-3 -0.659 0.135-0.967 0.402-0.283 0.269-0.435 0.547-0.455 0.834-0.044 0.622 0.305 0.96 1.048 1.012 1.316 0.092 2.781 0.134 4.393 0.127-0.259 1.642-0.481 3.78-0.666 6.413-0.154 2.203-0.278 4.492-0.373 6.867-0.046 0.67 0.241 1.027 0.864 1.071 0.359 0.025 0.69-0.06 0.992-0.255 0.328-0.218 0.504-0.494 0.527-0.829 0.061-0.862 0.096-1.534 0.105-2.014l0.153-2.696 0.668-8.506 2.366 0.238z" fill="#00AAE0"/>
    <path d="m439.37 231.56c0.175-1.097 0.675-2.898 1.498-5.403 1.277 0.4 2.959 0.653 5.044 0.758l1.01 4.99c0.134 0.679 0.596 1.039 1.387 1.079 0.312 0.016 0.581-0.067 0.806-0.248s0.345-0.415 0.36-0.703c-0.506-2.837-0.946-5.07-1.321-6.699-0.393-1.726-0.942-3.471-1.646-5.237-0.705-1.742-1.168-2.811-1.388-3.206-0.265-0.47-0.589-0.715-0.973-0.734-0.743-0.037-1.519 0.584-2.328 1.865-0.887 1.373-1.665 2.992-2.336 4.857-1.608 4.244-2.448 7.085-2.52 8.524-0.032 0.623 0.324 0.953 1.067 0.991 0.767 0.038 1.214-0.24 1.34-0.834zm4.503-12.101c0.621 1.498 1.138 3.17 1.549 5.017-1.438-0.073-2.677-0.279-3.717-0.62 0.588-1.653 1.31-3.118 2.168-4.397z" fill="#00AAE0"/>
    <path d="m469.67 220.21c0.36 0.011 0.712-0.122 1.057-0.4 0.345-0.302 0.523-0.608 0.532-0.92 0.012-0.384-0.195-0.678-0.621-0.883l1e-3 -0.036c-1.33-0.497-2.702-0.767-4.118-0.81-2.375-0.072-4.364 0.612-5.969 2.052-1.579 1.417-2.408 3.409-2.486 5.976-0.057 1.895 0.357 3.684 1.242 5.368 0.43 0.853 1.033 1.556 1.809 2.108 0.776 0.551 1.571 0.84 2.387 0.864 1.319 0.04 3.509-0.529 6.571-1.709 0.562-0.343 0.851-0.767 0.867-1.27 0.018-0.6-0.297-0.91-0.945-0.93-0.096-2e-3 -0.944 0.248-2.544 0.752-1.6 0.503-2.7 0.746-3.299 0.728-0.624-0.019-1.215-0.337-1.772-0.954-1.141-1.187-1.681-2.764-1.622-4.731 0.118-3.887 2.12-5.771 6.007-5.653l2.903 0.448z" fill="#00AAE0"/>
    <path d="m480.8 232.87c-0.031 0.744 0.313 1.119 1.033 1.126 1.056 0.011 1.588-0.38 1.596-1.172l-0.062-4.717c0.725-0.497 1.439-1.054 2.141-1.671 0.762 0.632 1.391 1.286 1.889 1.963 0.474 0.58 1.006 1.378 1.596 2.391 0.733 1.184 1.288 2.029 1.667 2.537 0.404 0.484 0.761 0.727 1.073 0.73 0.36 4e-3 0.661-0.113 0.904-0.351 0.242-0.237 0.365-0.56 0.369-0.968 5e-3 -0.48-0.572-1.614-1.73-3.401-1.158-1.884-2.379-3.408-3.664-4.572 3.127-3.138 4.696-5.283 4.707-6.435 6e-3 -0.6-0.447-0.904-1.359-0.913-0.456-4e-3 -0.854 0.244-1.195 0.744-0.925 1.359-1.861 2.538-2.807 3.537-0.776 0.832-1.987 1.913-3.632 3.241 0.035-3.504-0.195-5.811-0.688-6.919-0.236-0.435-0.558-0.654-0.966-0.658-0.336-3e-3 -0.661 0.126-0.975 0.387-0.315 0.236-0.473 0.463-0.475 0.679-3e-3 0.336 0.04 0.804 0.13 1.405 0.09 0.577 0.194 2.282 0.31 5.116 0.118 2.689 0.17 4.693 0.157 6.013l-0.019 1.908z" fill="#00AAE0"/>
    <path d="m517.27 234.3c0.135 0.621 0.514 0.924 1.138 0.909 0.408-9e-3 0.764-0.162 1.069-0.457s0.454-0.635 0.445-1.018c0.674 0.08 1.251 0.114 1.731 0.103 2.135-0.05 3.791-0.592 4.967-1.628 1.199-1.06 1.777-2.55 1.732-4.47-0.061-2.615-1.269-5.011-3.625-7.189-2.307-2.179-4.708-3.239-7.204-3.181-0.911 0.021-1.453 0.49-1.623 1.406-0.106 0.603-0.148 1.372-0.127 2.308 0.014 0.6 0.094 1.966 0.24 4.099 0.183 2.709 0.401 4.84 0.653 6.395-0.162 0.244-0.241 0.462-0.236 0.654 6e-3 0.287 0.168 0.548 0.486 0.78l0.354 1.289zm1.179-14.288c2.228 0.812 3.996 1.996 5.304 3.549 1.309 1.554 1.987 3.327 2.033 5.318 0.037 1.584-1.348 2.409-4.155 2.474-1.248 0.029-1.992 0.023-2.234-0.02-0.251-1.53-0.475-3.41-0.671-5.638-0.178-2.468-0.271-3.906-0.281-4.314-0.017-0.744-0.016-1.2 4e-3 -1.369z" fill="#00AAE0"/>
    <path d="m543.28 225.06c0.528-0.022 0.923-0.039 1.187-0.05 0.263-0.035 0.454-0.055 0.574-0.06 0.286-0.06 0.543-0.227 0.772-0.501 0.228-0.274 0.337-0.555 0.325-0.842-0.025-0.576-0.41-0.896-1.158-0.961-3.045 0.128-4.88 0.193-5.504 0.196-0.032-0.167-0.094-1.378-0.189-3.632 0.914 0.034 1.803 0.033 2.666-4e-3 2.374-0.099 3.866-0.33 4.475-0.692 0.28-0.204 0.41-0.534 0.391-0.989-0.025-0.6-0.424-0.943-1.196-1.031l-0.036 2e-3 -6.299 0.156-1.008 0.042c-1.078 0.07-1.598 0.548-1.561 1.435 0.065 1.535 0.172 3.236 0.323 5.103-0.253 0.275-0.373 0.568-0.36 0.88 0.015 0.36 0.182 0.617 0.501 0.772l0.251 5.97c0.032 0.768 0.13 1.376 0.293 1.826 0.163 0.449 0.544 0.661 1.144 0.636l7.046-0.368c0.935-0.039 1.382-0.562 1.34-1.569-0.023-0.528-0.383-0.813-1.081-0.856l-6.218 0.369c0.023-0.025 0.021-0.361-7e-3 -1.008l-0.269-4.709 3.598-0.115z" fill="#00AAE0"/>
    <path d="m568.79 216.24c-0.031-0.503-0.364-0.843-1-1.02-0.147-0.04-0.268-0.056-0.364-0.05-0.599 0.036-1.155 0.768-1.669 2.194-0.228 0.591-0.751 2.27-1.568 5.037-0.673 2.349-1.095 3.902-1.265 4.658-0.081-0.14-0.288-0.572-0.621-1.297-0.334-0.749-0.678-1.449-1.03-2.101-0.164-0.326-0.599-1.141-1.304-2.445l-1.463-2.687c-0.38-0.722-0.725-1.242-1.033-1.56-0.309-0.342-0.691-0.499-1.147-0.471-0.311 0.019-0.626 0.183-0.943 0.49-0.294 0.307-0.432 0.604-0.415 0.891l0.013 0.216c9e-3 0.144 0.055 0.309 0.139 0.497 0.106 0.161 0.252 0.393 0.439 0.694l0.599 0.937c2 3.22 3.813 6.524 5.439 9.911 0.634 1.331 1.191 1.983 1.67 1.953 0.623-0.038 1.077-0.486 1.361-1.345 0.822-2.672 1.458-5.043 1.909-7.114 0.498-2.075 0.964-3.69 1.398-4.847l0.564-1.405c0.21-0.493 0.307-0.872 0.291-1.136z" fill="#00AAE0"/>
    <path d="m584.03 222.53c0.526-0.042 0.921-0.074 1.184-0.095 0.262-0.045 0.452-0.073 0.572-0.082 0.283-0.071 0.533-0.248 0.752-0.53 0.218-0.283 0.315-0.567 0.292-0.854-0.046-0.574-0.444-0.88-1.193-0.916-3.038 0.245-4.869 0.38-5.493 0.406-0.038-0.166-0.147-1.373-0.328-3.622 0.915-1e-3 1.803-0.036 2.665-0.105 2.368-0.191 3.85-0.478 4.445-0.863 0.271-0.215 0.389-0.549 0.352-1.004-0.048-0.598-0.459-0.926-1.234-0.984l-0.036 3e-3 -6.289 0.397-1.005 0.081c-1.074 0.11-1.576 0.608-1.505 1.493 0.123 1.531 0.296 3.227 0.518 5.087-0.242 0.284-0.351 0.582-0.326 0.893 0.029 0.359 0.206 0.61 0.53 0.752l0.479 5.957c0.062 0.765 0.182 1.37 0.362 1.813 0.181 0.443 0.57 0.64 1.168 0.592l7.027-0.637c0.933-0.075 1.359-0.615 1.279-1.62-0.043-0.526-0.414-0.797-1.113-0.813l-6.2 0.606c0.022-0.025 7e-3 -0.361-0.044-1.007l-0.45-4.695 3.591-0.253z" fill="#00AAE0"/>
    <path d="m601.4 229.11c1.385-0.135 2.572-0.334 3.559-0.598 0.49-0.168 0.704-0.575 0.641-1.22-0.079-0.812-0.512-1.18-1.3-1.104l-5.272 0.837c-0.215-1.475-0.374-2.737-0.476-3.788-0.092-0.956-0.125-2.665-0.098-5.127 0.056-1.91 0.053-3.308-9e-3 -4.194-0.037-0.383-0.209-0.667-0.516-0.855-0.308-0.187-0.689-0.258-1.143-0.214-0.907 0.087-1.332 0.43-1.274 1.027l0.755 10.416c0.206 2.126 0.429 3.684 0.67 4.673 0.106 0.352 0.458 0.498 1.055 0.44l3.408-0.293z" fill="#00AAE0"/>
    <path d="m618.33 210.74c-2.266 0.26-3.969 1.095-5.112 2.507-1.119 1.408-1.538 3.329-1.259 5.761 0.282 2.456 1.154 4.481 2.618 6.077 1.46 1.572 3.192 2.243 5.195 2.013 1.86-0.214 3.275-1.246 4.247-3.097 0.992-1.877 1.354-3.984 1.086-6.321-0.268-2.336-1.017-4.123-2.246-5.359-1.231-1.259-2.741-1.787-4.529-1.581zm1.393 13.718c-1.407 0.162-2.604-0.377-3.592-1.617-0.961-1.218-1.532-2.614-1.713-4.188-0.18-1.574 0.063-2.821 0.73-3.743 0.665-0.946 1.688-1.499 3.071-1.657 1.359-0.156 2.364 0.175 3.013 0.994 0.671 0.793 1.119 2.167 1.343 4.122 0.222 1.932-0.077 3.536-0.897 4.814-0.493 0.757-1.144 1.182-1.955 1.275z" fill="#00AAE0"/>
    <path d="m637.18 208.22c-2.711 0.364-4.024 1.049-3.938 2.054l1.801 13.416c0.073 0.547 0.234 0.937 0.484 1.17 0.246 0.209 0.678 0.272 1.296 0.189 0.643-0.086 0.951-0.406 0.925-0.96-0.08-0.957-0.167-1.781-0.259-2.471-0.147-1.094-0.357-2.386-0.629-3.875 0.607 0.016 1.232-0.02 1.874-0.106 1.499-0.201 2.644-0.694 3.434-1.478 1.089-1.09 1.503-2.611 1.241-4.561-0.169-1.261-0.827-2.19-1.972-2.787-1.125-0.624-2.544-0.821-4.257-0.591zm-1.301 2.754c0.606-0.179 1.063-0.288 1.372-0.33 0.571-0.077 1.189-0.075 1.853 6e-3 1.133 0.138 1.765 0.514 1.895 1.126l0.043 0.321c0.137 1.023-0.112 1.783-0.747 2.279-0.462 0.353-1.192 0.596-2.191 0.73-0.618 0.083-1.194 0.124-1.727 0.123l-0.201-1.499c-0.169-1.26-0.268-2.179-0.297-2.756z" fill="#00AAE0"/>
    <path d="m659.19 213.73c0.522-0.08 0.914-0.139 1.175-0.179 0.257-0.063 0.445-0.104 0.564-0.122 0.277-0.091 0.515-0.285 0.712-0.582 0.198-0.297 0.275-0.588 0.232-0.873-0.087-0.569-0.505-0.845-1.255-0.828-3.014 0.458-4.83 0.723-5.451 0.793-0.049-0.162-0.243-1.359-0.583-3.589 0.912-0.066 1.796-0.164 2.65-0.294 2.349-0.358 3.806-0.75 4.373-1.176 0.256-0.233 0.349-0.575 0.281-1.026-0.091-0.593-0.525-0.891-1.302-0.894l-0.036 5e-3 -6.244 0.842-0.996 0.152c-1.065 0.186-1.53 0.718-1.396 1.596 0.231 1.518 0.523 3.198 0.876 5.037-0.221 0.301-0.308 0.606-0.261 0.914 0.054 0.356 0.248 0.594 0.582 0.713l0.899 5.908c0.116 0.759 0.279 1.353 0.49 1.782s0.613 0.599 1.207 0.508l6.964-1.133c0.926-0.141 1.312-0.71 1.161-1.706-0.08-0.522-0.469-0.766-1.168-0.733l-6.141 1.045c0.02-0.028-0.018-0.362-0.116-1.002l-0.781-4.652 3.564-0.506z" fill="#00AAE0"/>
    <path d="m675.23 217.94c-0.435-2.117-0.723-3.516-0.864-4.198 1.084 0.496 2.331 1.172 3.743 2.026 1.389 0.858 2.271 1.462 2.648 1.812 0.514 0.447 0.949 0.641 1.304 0.58 0.095-0.016 0.242-0.078 0.443-0.185 0.536-0.286 0.759-0.69 0.67-1.21-0.126-0.733-0.865-1.569-2.218-2.506-1.401-0.93-2.901-1.732-4.502-2.408 0.185-0.056 0.716-0.439 1.593-1.149s1.524-1.271 1.94-1.683c0.475-0.495 0.871-1.098 1.188-1.81 0.34-0.716 0.468-1.322 0.383-1.819-0.186-1.088-0.921-1.899-2.206-2.435-1.288-0.559-2.69-0.709-4.204-0.45-1.537 0.263-2.719 0.684-3.545 1.264-0.827 0.579-1.175 1.248-1.046 2.005 1.343 7.854 2.145 12.258 2.405 13.211 0.081 0.473 0.381 0.666 0.902 0.577 0.402-0.069 0.747-0.262 1.033-0.579 0.287-0.317 0.4-0.652 0.339-1.007l-6e-3 -0.036zm-1.403-7.356c-0.429-2.508-0.696-4.142-0.802-4.904 0.815-0.358 1.672-0.614 2.571-0.768 0.852-0.145 1.639-0.097 2.362 0.144 0.743 0.214 1.165 0.617 1.266 1.208 0.042 0.675-0.651 1.536-2.078 2.583-1.456 1.028-2.562 1.607-3.319 1.737z" fill="#00AAE0"/>
    <path d="m11.509 256.34c-0.0218-0.565-0.3162-0.897-0.8834-0.998-0.3781-0.067-0.79105-6e-3 -1.2389 0.182-0.42421 0.193-0.68509 0.427-0.78265 0.703l-1.8998 11.947c-0.63708 3.592-1.275 6.502-1.9136 8.728-0.12155 0.686 0.14851 1.087 0.81018 1.204 0.40173 0.072 0.8147 0.011 1.2389-0.182 0.45203-0.212 0.73311-0.492 0.84324-0.838 0.62495-2.424 1.2203-5.231 1.7862-8.421l2.0398-12.325z" fill="#00AAE0"/>
    <path d="m44.438 270.97c0.3552 0.059 0.722-0.026 1.1005-0.256 0.3825-0.253 0.5992-0.533 0.6501-0.841 0.0627-0.379-0.1034-0.698-0.4982-0.958l0.0059-0.036c-1.2515-0.669-2.5758-1.119-3.9728-1.35-2.3441-0.388-4.4072 0.024-6.1892 1.238-1.7544 1.193-2.8413 3.057-3.2607 5.59-0.3096 1.871-0.1379 3.699 0.5151 5.486 0.3128 0.903 0.8167 1.68 1.5118 2.33 0.6952 0.65 1.4453 1.042 2.2503 1.175 1.3023 0.216 3.549-0.057 6.7401-0.818 0.6034-0.265 0.9463-0.646 1.0286-1.143 0.0979-0.592-0.1727-0.941-0.812-1.047-0.0947-0.016-0.9685 0.119-2.6214 0.405s-2.7753 0.38-3.3673 0.282c-0.6156-0.102-1.1585-0.496-1.6288-1.182-0.9721-1.328-1.2975-2.963-0.9761-4.905 0.6349-3.836 2.8702-5.436 6.706-4.801l2.8181 0.831z" fill="#00AAE0"/>
    <path d="m55.586 285.1c0.2655-2.145 0.4406-3.563 0.5253-4.254 0.8673 0.817 1.8331 1.856 2.8976 3.118 1.0407 1.257 1.6834 2.112 1.928 2.564 0.3444 0.588 0.6945 0.911 1.0501 0.967 0.0948 0.015 0.2545 4e-3 0.4791-0.034 0.5989-0.1 0.9395-0.41 1.0217-0.932 0.116-0.735-0.3171-1.763-1.2992-3.084-1.0295-1.329-2.1944-2.569-3.4947-3.722 0.1934 6e-3 0.8191-0.187 1.8771-0.579s1.8503-0.716 2.3768-0.973c0.6088-0.317 1.1771-0.762 1.7048-1.335 0.5514-0.569 0.8664-1.102 0.9449-1.6 0.1721-1.091-0.2648-2.095-1.3105-3.013-1.0419-0.942-2.3215-1.533-3.8387-1.772-1.541-0.243-2.7955-0.222-3.7637 0.062-0.9682 0.285-1.5121 0.806-1.6318 1.565-1.2417 7.871-1.8918 12.299-1.9504 13.286-0.0748 0.475 0.1486 0.753 0.6702 0.835 0.403 0.064 0.791-9e-3 1.164-0.217 0.3731-0.209 0.5877-0.491 0.6438-0.846l0.0056-0.036zm1.0246-7.419c0.3965-2.513 0.6664-4.147 0.8098-4.901 0.8871-0.079 1.7811-0.047 2.6819 0.095 0.8535 0.134 1.584 0.432 2.1917 0.892 0.6352 0.44 0.906 0.957 0.8125 1.55-0.1759 0.652-1.1078 1.246-2.7959 1.782-1.708 0.508-2.9414 0.702-3.7 0.582z" fill="#00AAE0"/>
    <path d="m80.136 282.12c0.5221 0.078 0.9137 0.137 1.1748 0.176 0.2646 0.016 0.4563 0.033 0.5749 0.051 0.292-5e-3 0.5763-0.12 0.8529-0.345 0.2766-0.226 0.4364-0.481 0.4793-0.765 0.0857-0.57-0.2321-0.958-0.9535-1.163-3.014-0.454-4.8278-0.739-5.4412-0.856 0.0013-0.17 0.1699-1.37 0.5058-3.601 0.8911 0.207 1.7638 0.375 2.6182 0.504 2.3495 0.353 3.8578 0.411 4.5249 0.171 0.3134-0.147 0.504-0.446 0.5719-0.897 0.0894-0.593-0.2368-1.006-0.9783-1.239l-0.0356-5e-3 -6.2137-1.045-0.9968-0.15c-1.0715-0.137-1.6734 0.233-1.8056 1.111-0.2287 1.519-0.4469 3.209-0.6544 5.071-0.3004 0.222-0.4738 0.487-0.5203 0.796-0.0536 0.356 0.0614 0.64 0.3449 0.852l-0.8899 5.91c-0.1143 0.759-0.1343 1.375-0.0598 1.848 0.0745 0.472 0.4084 0.753 1.0017 0.842l6.9881 0.98c0.9256 0.139 1.4634-0.29 1.6135-1.287 0.0786-0.522-0.2208-0.87-0.8984-1.045l-6.1746-0.821c0.0273-0.02 0.0892-0.35 0.1857-0.991l0.631-4.674 3.5545 0.572z" fill="#00AAE0"/>
    <path d="m93.943 291.32c0.2753-1.076 0.9378-2.824 1.9875-5.243 1.2353 0.516 2.8864 0.922 4.9529 1.218l0.548 5.061c0.071 0.689 0.499 1.09 1.283 1.202 0.309 0.044 0.584-0.013 0.825-0.173 0.241-0.159 0.382-0.381 0.423-0.666-0.244-2.872-0.477-5.136-0.701-6.792-0.233-1.755-0.619-3.544-1.158-5.367-0.543-1.799-0.906-2.906-1.089-3.32-0.22-0.492-0.52-0.765-0.9-0.82-0.737-0.105-1.567 0.443-2.4907 1.644-1.0085 1.286-1.9323 2.826-2.7713 4.622-1.9904 4.079-3.0877 6.831-3.2919 8.256-0.0885 0.618 0.2355 0.979 0.972 1.085 0.7602 0.109 1.2304-0.127 1.4105-0.707zm5.5944-11.637c0.481 1.548 0.842 3.261 1.083 5.138-1.4259-0.204-2.6409-0.524-3.6454-0.959 0.7371-1.591 1.5913-2.984 2.5624-4.179z" fill="#00AAE0"/>
    <path d="m123.55 281.93c2.236 0.303 3.42-0.033 3.552-1.008 0.064-0.476-0.215-0.828-0.838-1.058l-11.178-1.152c-0.336-0.021-0.666 0.092-0.99 0.338-0.301 0.25-0.47 0.518-0.509 0.803-0.084 0.619 0.243 0.978 0.98 1.078 1.308 0.177 2.767 0.314 4.377 0.411-0.365 1.622-0.725 3.741-1.08 6.357-0.296 2.188-0.569 4.464-0.816 6.828-0.091 0.666 0.173 1.041 0.792 1.125 0.357 0.048 0.692-0.016 1.007-0.191 0.341-0.196 0.534-0.46 0.579-0.793 0.116-0.857 0.195-1.524 0.235-2.003l0.327-2.68 1.218-8.445 2.344 0.39z" fill="#00AAE0"/>
    <path d="m140.46 290.5c0.524 0.067 0.916 0.117 1.178 0.151 0.265 9e-3 0.457 0.022 0.576 0.037 0.292-0.011 0.574-0.132 0.845-0.363 0.272-0.232 0.426-0.49 0.463-0.776 0.073-0.571-0.253-0.952-0.979-1.141-3.023-0.388-4.843-0.634-5.459-0.737-2e-3 -0.169 0.14-1.373 0.427-3.611 0.895 0.188 1.771 0.336 2.628 0.446 2.357 0.302 3.866 0.326 4.528 0.073 0.31-0.154 0.494-0.457 0.552-0.91 0.076-0.595-0.259-1.001-1.005-1.217l-0.036-5e-3 -6.235-0.908-1-0.128c-1.074-0.114-1.668 0.27-1.781 1.15-0.195 1.524-0.376 3.219-0.543 5.085-0.295 0.228-0.463 0.497-0.502 0.806-0.046 0.357 0.075 0.639 0.363 0.845l-0.76 5.928c-0.097 0.762-0.104 1.378-0.019 1.848 0.085 0.471 0.425 0.744 1.02 0.821l7.008 0.826c0.928 0.119 1.456-0.322 1.585-1.321 0.067-0.524-0.24-0.866-0.921-1.026l-6.192-0.685c0.027-0.021 0.082-0.352 0.164-0.995l0.529-4.687 3.566 0.494z" fill="#00AAE0"/>
    <path d="m175.28 293.43c0.825-0.654 1.312-1.624 1.462-2.912 0.146-1.263-0.261-2.337-1.221-3.222-0.934-0.905-2.212-1.452-3.833-1.64s-2.745 0.128-3.372 0.95c-0.627 0.821-1.064 2.304-1.313 4.45-0.393 3.385-0.711 6.441-0.955 9.167l-0.142 1.542c5.65 0.655 8.891 0.621 9.724-0.104 1.195-0.925 1.881-2.15 2.058-3.676 0.107-0.93-0.064-1.843-0.516-2.741-0.449-0.922-1.079-1.527-1.892-1.814zm-5.563-3.907c0.075-0.644 0.259-1.082 0.551-1.314 0.32-0.253 0.861-0.335 1.624-0.246 0.81 0.094 1.468 0.363 1.972 0.808 0.53 0.424 0.762 0.922 0.696 1.494-0.116 1.002-0.69 1.684-1.723 2.048-1.027 0.315-2.185 0.399-3.472 0.249l0.352-3.039zm3.076 5.358c1.978 0.229 2.871 1.178 2.677 2.847-0.165 1.43-1.354 2.199-3.565 2.305-1.14 0.037-1.96 0.026-2.461-0.032-0.497-0.082-0.77-0.126-0.818-0.131 0.016-1.182 0.09-2.333 0.219-3.454l0.231-1.677c1.477-0.022 2.715 0.025 3.717 0.142z" fill="#00AAE0"/>
    <path d="m193.01 296.71c0.525 0.057 0.919 0.1 1.181 0.129 0.265 4e-3 0.458 0.013 0.577 0.026 0.291-0.016 0.571-0.143 0.838-0.379 0.267-0.237 0.416-0.498 0.447-0.784 0.063-0.573-0.271-0.947-1-1.123-3.03-0.33-4.854-0.541-5.472-0.632-5e-3 -0.17 0.114-1.376 0.358-3.619 0.899 0.17 1.778 0.302 2.637 0.396 2.362 0.257 3.871 0.252 4.528-0.014 0.307-0.16 0.485-0.466 0.534-0.92 0.065-0.596-0.277-0.996-1.028-1.198l-0.036-4e-3 -6.251-0.789-1.002-0.109c-1.076-0.093-1.662 0.302-1.759 1.184-0.166 1.527-0.314 3.225-0.446 5.094-0.291 0.234-0.453 0.506-0.487 0.816-0.039 0.358 0.088 0.637 0.38 0.838l-0.647 5.941c-0.083 0.763-0.078 1.38 0.016 1.849 0.094 0.468 0.439 0.735 1.035 0.8l7.023 0.693c0.93 0.101 1.45-0.35 1.559-1.352 0.057-0.525-0.256-0.86-0.94-1.007l-6.203-0.567c0.026-0.021 0.074-0.354 0.144-0.998l0.439-4.696 3.575 0.425z" fill="#00AAE0"/>
    <path d="m207.18 305.35c0.231-1.086 0.821-2.86 1.77-5.32 1.256 0.465 2.922 0.803 4.999 1.014l0.755 5.034c0.1 0.686 0.543 1.069 1.331 1.149 0.311 0.031 0.583-0.037 0.817-0.207 0.235-0.169 0.366-0.397 0.395-0.683-0.36-2.859-0.686-5.112-0.978-6.758-0.305-1.743-0.764-3.515-1.377-5.314-0.616-1.775-1.024-2.866-1.224-3.273-0.24-0.482-0.552-0.743-0.934-0.782-0.74-0.075-1.547 0.506-2.42 1.744-0.955 1.327-1.815 2.904-2.58 4.732-1.821 4.157-2.805 6.952-2.95 8.384-0.064 0.621 0.275 0.969 1.015 1.044 0.764 0.078 1.224-0.177 1.381-0.764zm5.112-11.856c0.545 1.527 0.975 3.223 1.292 5.089-1.432-0.146-2.659-0.415-3.681-0.808 0.672-1.621 1.468-3.048 2.389-4.281z" fill="#00AAE0"/>
    <path d="m237.13 294.02c0.159 1.389 0.115 3.409-0.134 6.062-0.417 4.444-1.928 6.544-4.532 6.3-1.171-0.11-2.076-0.87-2.715-2.279-0.616-1.408-0.904-3.086-0.866-5.035 0.042-0.961 0.092-1.751 0.15-2.373 0.124-1.314 0.298-2.527 0.522-3.639 0.053-0.308-7e-3 -0.567-0.18-0.776s-0.415-0.328-0.726-0.357c-0.31-0.03-0.644 0.06-1.001 0.267-0.355 0.184-0.559 0.43-0.612 0.738-0.238 1.256-0.404 2.385-0.498 3.389-0.242 2.58-0.154 4.975 0.266 7.184 0.293 1.498 0.901 2.724 1.824 3.678 0.949 0.933 2.153 1.468 3.61 1.604 2.055 0.193 3.623-0.202 4.704-1.185 1.106-1.006 1.852-2.659 2.237-4.961 0.132-0.639 0.248-1.496 0.349-2.571 0.18-1.911 0.258-4.037 0.237-6.378 1e-3 -0.265-0.111-0.492-0.334-0.682-0.199-0.187-0.466-0.297-0.801-0.328-0.358-0.034-0.691 0.044-0.998 0.232-0.309 0.212-0.478 0.473-0.507 0.784l5e-3 0.326z" fill="#00AAE0"/>
    <path d="m258.21 296.69c2.248 0.194 3.414-0.2 3.498-1.18 0.041-0.479-0.255-0.817-0.888-1.016l-11.222-0.604c-0.337-5e-3 -0.661 0.124-0.972 0.386-0.288 0.264-0.444 0.54-0.469 0.827-0.054 0.622 0.29 0.964 1.032 1.028 1.315 0.113 2.779 0.179 4.391 0.197-0.285 1.638-0.541 3.772-0.767 6.402-0.19 2.2-0.35 4.487-0.482 6.86-0.058 0.67 0.224 1.031 0.846 1.084 0.359 0.031 0.691-0.049 0.996-0.239 0.332-0.212 0.512-0.486 0.541-0.821 0.074-0.861 0.119-1.531 0.137-2.011l0.195-2.694 0.803-8.494 2.361 0.275z" fill="#00AAE0"/>
    <path d="m269.14 312c0.359 0.029 0.715-0.063 1.069-0.275 0.356-0.237 0.558-0.497 0.605-0.782 0.195-1.237 0.555-5.12 1.079-11.651 0.119-1.484 0.177-2.358 0.174-2.623 7e-3 -0.385-0.114-0.683-0.361-0.896-0.226-0.186-0.519-0.294-0.877-0.323-0.359-0.029-0.667 0.055-0.923 0.251-0.231 0.174-0.36 0.429-0.387 0.764l-1.315 14.593c-0.046 0.574 0.266 0.888 0.936 0.942z" fill="#00AAE0"/>
    <path d="m287.4 305.8c0.359 0.027 0.655-0.071 0.889-0.295 0.233-0.223 0.362-0.502 0.387-0.837 0.026-0.335-0.061-0.63-0.258-0.886-0.174-0.253-0.38-0.389-0.619-0.407l-4.667-0.35 0.29-3.877c1.335 0.172 2.422 0.29 3.259 0.352 1.221 0.092 1.954 0.099 2.201 0.021 0.239 0.018 0.532-0.032 0.878-0.151 0.39-0.067 0.607-0.4 0.652-0.998 0.057-0.766-0.608-1.201-1.996-1.305-2.776-0.208-4.557-0.377-5.341-0.508-0.737-0.128-1.272-0.204-1.607-0.229-0.288-0.022-0.588 0.136-0.902 0.474-0.237 0.271-0.363 0.502-0.377 0.694-0.063 0.837 0.214 1.315 0.831 1.434-7e-3 0.408-0.095 1.749-0.266 4.023l-0.425 5.672c-0.125 1.675-0.175 2.658-0.149 2.949 0.052 0.919 0.448 1.406 1.19 1.461 0.742 0.056 1.155-0.479 1.24-1.604 0.061-1.776 0.174-3.765 0.339-5.967l4.451 0.334z" fill="#00AAE0"/>
    <path d="m308.61 299.71c0.195 1.385 0.202 3.406 0.022 6.064-0.301 4.453-1.757 6.592-4.367 6.415-1.174-0.079-2.098-0.815-2.773-2.208-0.652-1.391-0.984-3.062-0.996-5.011 0.017-0.961 0.046-1.753 0.089-2.375 0.089-1.317 0.231-2.535 0.427-3.652 0.045-0.31-0.021-0.567-0.2-0.771-0.179-0.205-0.423-0.318-0.735-0.339-0.311-0.021-0.642 0.077-0.994 0.294-0.35 0.193-0.547 0.444-0.592 0.754-0.206 1.261-0.343 2.394-0.411 3.4-0.175 2.586-0.024 4.977 0.452 7.175 0.332 1.489 0.972 2.699 1.919 3.63 0.973 0.907 2.19 1.411 3.651 1.51 2.059 0.139 3.616-0.297 4.671-1.308 1.08-1.033 1.783-2.705 2.108-5.017 0.115-0.641 0.21-1.501 0.282-2.578 0.13-1.916 0.154-4.043 0.072-6.382-6e-3 -0.265-0.123-0.49-0.351-0.674-0.205-0.182-0.474-0.284-0.809-0.307-0.36-0.024-0.69 0.062-0.992 0.258-0.304 0.22-0.466 0.485-0.487 0.797l0.014 0.325z" fill="#00AAE0"/>
    <path d="m323.56 315.89c1.389 0.084 2.592 0.073 3.608-0.033 0.511-0.089 0.785-0.457 0.825-1.104 0.049-0.815-0.321-1.246-1.112-1.294h-5.338c0.019-1.49 0.06-2.762 0.125-3.816 0.058-0.958 0.293-2.651 0.705-5.078 0.355-1.878 0.571-3.26 0.649-4.145 0.024-0.383-0.102-0.691-0.376-0.924-0.275-0.233-0.639-0.364-1.094-0.391-0.911-0.056-1.384 0.216-1.421 0.815l-0.885 10.405c-0.13 2.132-0.154 3.706-0.071 4.721 0.05 0.363 0.374 0.563 0.973 0.6l3.412 0.244z" fill="#00AAE0"/>
    <path d="m351.88 316.46c0.174-1.097 0.671-2.898 1.491-5.405 1.278 0.399 2.959 0.65 5.045 0.752l1.016 4.988c0.135 0.68 0.598 1.039 1.389 1.078 0.312 0.015 0.58-0.068 0.805-0.249s0.345-0.416 0.359-0.703c-0.509-2.837-0.952-5.069-1.329-6.698-0.395-1.725-0.946-3.47-1.653-5.235-0.707-1.741-1.171-2.809-1.392-3.204-0.265-0.47-0.59-0.714-0.973-0.733-0.743-0.037-1.519 0.586-2.327 1.868-0.884 1.374-1.661 2.994-2.329 4.86-1.603 4.246-2.439 7.088-2.51 8.527-0.03 0.623 0.326 0.953 1.069 0.989 0.767 0.038 1.213-0.24 1.339-0.835zm4.487-12.106c0.624 1.496 1.142 3.168 1.556 5.014-1.438-0.071-2.678-0.276-3.718-0.615 0.586-1.653 1.306-3.12 2.162-4.399z" fill="#00AAE0"/>
    <path d="m373.48 307.2c1.897 2.337 3.685 5.27 5.363 8.799 0.067 0.122 0.2 0.392 0.399 0.809 0.199 0.416 0.492 0.885 0.878 1.405 0.319 0.422 0.778 0.645 1.378 0.67 1.007 0.042 1.536-0.56 1.588-1.807l0.377-13.388c0.017-0.408-0.101-0.749-0.354-1.024-0.252-0.299-0.534-0.454-0.845-0.467-0.792-0.033-1.302 0.402-1.532 1.305l-0.012 0.288 0.057 2.957c0.051 2.236 0.028 4.829-0.071 7.78-1.094-2.568-2.711-5.29-4.849-8.165-0.885-1.238-1.57-2.095-2.055-2.571-0.484-0.501-0.905-0.759-1.265-0.774-0.671-0.028-1.116 0.278-1.335 0.918-0.141 0.498-0.23 1.191-0.267 2.078l-0.049 1.187-0.706 10.06c0.011 0.312 0.119 0.581 0.326 0.806 0.232 0.202 0.492 0.309 0.78 0.321 0.743 0.031 1.176-0.276 1.299-0.919 0.028-0.095 0.05-0.346 0.067-0.754l0.069-0.79 0.759-8.724z" fill="#00AAE0"/>
    <path d="m392.54 319.55c0.099 0.628 0.46 0.953 1.084 0.974 0.407 0.014 0.772-0.118 1.094-0.395 0.321-0.277 0.489-0.608 0.502-0.992 0.668 0.119 1.242 0.187 1.722 0.203 2.135 0.073 3.819-0.374 5.052-1.341 1.259-0.99 1.92-2.444 1.986-4.363 0.089-2.615-0.98-5.076-3.207-7.385-2.179-2.308-4.516-3.504-7.01-3.589-0.912-0.031-1.479 0.406-1.702 1.311-0.14 0.596-0.226 1.361-0.258 2.297-0.02 0.599-0.019 1.968 4e-3 4.106 0.028 2.715 0.124 4.855 0.286 6.422-0.176 0.234-0.267 0.447-0.274 0.639-9e-3 0.288 0.138 0.557 0.441 0.807l0.28 1.306zm1.996-14.196c2.177 0.939 3.874 2.221 5.092 3.847 1.217 1.627 1.792 3.435 1.724 5.426-0.053 1.583-1.483 2.327-4.29 2.232-1.247-0.043-1.99-0.092-2.228-0.148-0.164-1.543-0.28-3.432-0.348-5.667-0.036-2.475-0.047-3.916-0.033-4.324 0.026-0.744 0.053-1.199 0.083-1.366z" fill="#00AAE0"/>
    <path d="m428.9 319.28c0.143-1.101 0.59-2.916 1.341-5.444 1.288 0.364 2.976 0.568 5.064 0.612l1.154 4.958c0.153 0.676 0.626 1.022 1.418 1.039 0.312 7e-3 0.578-0.084 0.798-0.271s0.333-0.425 0.339-0.713c-0.587-2.821-1.092-5.041-1.514-6.658-0.443-1.714-1.042-3.443-1.797-5.188-0.755-1.72-1.249-2.775-1.481-3.164-0.278-0.462-0.609-0.697-0.993-0.705-0.744-0.016-1.501 0.628-2.274 1.931-0.846 1.399-1.577 3.039-2.193 4.922-1.485 4.29-2.242 7.154-2.273 8.594-0.013 0.624 0.352 0.944 1.096 0.96 0.768 0.016 1.206-0.275 1.315-0.873zm4.15-12.226c0.665 1.479 1.23 3.135 1.694 4.97-1.439-0.031-2.684-0.202-3.733-0.512 0.539-1.669 1.219-3.155 2.039-4.458z" fill="#00AAE0"/>
    <path d="m458.98 307.24c0.36 5e-3 0.71-0.135 1.05-0.418 0.34-0.307 0.512-0.617 0.517-0.929 5e-3 -0.384-0.207-0.675-0.637-0.873l1e-3 -0.036c-1.338-0.474-2.715-0.721-4.13-0.74-2.376-0.033-4.354 0.684-5.934 2.151-1.556 1.443-2.352 3.448-2.387 6.016-0.026 1.896 0.418 3.678 1.331 5.347 0.445 0.846 1.059 1.538 1.844 2.077s1.585 0.814 2.401 0.825c1.32 0.018 3.5-0.588 6.541-1.819 0.557-0.352 0.839-0.781 0.846-1.285 8e-3 -0.599-0.312-0.904-0.96-0.913-0.096-1e-3 -0.939 0.263-2.531 0.794-1.591 0.53-2.687 0.791-3.287 0.783-0.624-9e-3 -1.219-0.317-1.787-0.925-1.16-1.168-1.727-2.735-1.7-4.703 0.053-3.888 2.024-5.805 5.911-5.752l2.911 0.4z" fill="#00AAE0"/>
    <path d="m480.9 307.42c0.36 2e-3 0.709-0.14 1.047-0.426 0.338-0.31 0.507-0.621 0.509-0.933 2e-3 -0.384-0.212-0.673-0.643-0.867v-0.036c-1.341-0.464-2.72-0.7-4.136-0.708-2.376-0.014-4.348 0.719-5.916 2.198-1.545 1.455-2.324 3.466-2.339 6.034-0.011 1.896 0.447 3.675 1.373 5.336 0.451 0.843 1.071 1.531 1.86 2.063 0.789 0.533 1.592 0.801 2.408 0.806 1.32 8e-3 3.495-0.616 6.527-1.871 0.554-0.356 0.832-0.787 0.835-1.291 4e-3 -0.6-0.319-0.902-0.967-0.905-0.096-1e-3 -0.937 0.27-2.524 0.813-1.588 0.543-2.681 0.813-3.281 0.809-0.624-3e-3 -1.222-0.307-1.795-0.91-1.169-1.159-1.748-2.722-1.737-4.69 0.022-3.888 1.978-5.821 5.865-5.798l2.914 0.376z" fill="#00AAE0"/>
    <path d="m497.94 312.91c0.528 0 0.924-1e-3 1.188-2e-3 0.264-0.024 0.456-0.036 0.576-0.036 0.288-0.049 0.551-0.205 0.791-0.47 0.24-0.264 0.359-0.54 0.359-0.828-1e-3 -0.576-0.374-0.912-1.118-1.007-3.048 5e-3 -4.884-4e-3 -5.508-0.027-0.024-0.168-0.038-1.38-0.042-3.636 0.912 0.071 1.8 0.106 2.664 0.104 2.376-4e-3 3.876-0.174 4.499-0.511 0.288-0.193 0.432-0.517 0.431-0.973-1e-3 -0.6-0.386-0.959-1.154-1.078h-0.036l-6.3-0.098-1.008 2e-3c-1.08 0.026-1.619 0.483-1.618 1.371 3e-3 1.536 0.041 3.239 0.116 5.111-0.263 0.265-0.395 0.553-0.394 0.865 0 0.36 0.157 0.624 0.469 0.791l0.01 5.976c1e-3 0.768 0.074 1.38 0.219 1.836 0.144 0.456 0.517 0.683 1.117 0.682l7.056-0.083c0.936-2e-3 1.403-0.507 1.401-1.515-1e-3 -0.528-0.349-0.827-1.045-0.898l-6.228 0.118c0.024-0.024 0.035-0.36 0.034-1.008l-0.079-4.716 3.6 0.03z" fill="#00AAE0"/>
    <path d="m521.4 306.47c-6e-3 -0.696-0.455-1.244-1.346-1.645-0.892-0.424-2.154-0.629-3.786-0.615-1.679 0.014-3.08 0.434-4.201 1.26-1.145 0.802-1.713 1.767-1.703 2.895 0.01 1.104 0.329 1.965 0.958 2.584 0.581 0.571 1.329 0.984 2.243 1.241l1.335 0.312c1.01 0.207 1.804 0.416 2.382 0.627 0.601 0.187 1.108 0.471 1.519 0.851 0.411 0.381 0.62 0.895 0.625 1.543 7e-3 0.816-0.275 1.478-0.847 1.987-0.547 0.509-1.325 0.768-2.333 0.777-0.6 5e-3 -2.02-0.427-4.259-1.296-0.145-0.046-0.253-0.07-0.325-0.069-0.312 3e-3 -0.587 0.149-0.824 0.439-0.238 0.266-0.355 0.567-0.352 0.903 6e-3 0.744 0.575 1.363 1.708 1.858 1.132 0.494 2.478 0.734 4.038 0.721 1.584-0.014 2.936-0.446 4.057-1.295 1.145-0.874 1.709-2.187 1.694-3.939-6e-3 -0.744-0.108-1.379-0.304-1.905-0.173-0.551-0.368-0.921-0.586-1.111-0.242-0.238-0.544-0.476-0.906-0.713-0.363-0.285-1.193-0.589-2.492-0.914-1.323-0.325-2.406-0.687-3.25-1.088-0.915-0.424-1.376-0.912-1.38-1.464-5e-3 -0.552 0.363-1.011 1.104-1.378 0.74-0.39 1.459-0.589 2.155-0.595 0.744-6e-3 1.513 0.179 2.309 0.557 0.843 0.376 1.457 0.563 1.841 0.56 0.216-2e-3 0.419-0.1 0.609-0.294 0.214-0.217 0.32-0.482 0.317-0.794z" fill="#00AAE0"/>
    <path d="m541.32 306.19c-0.011-0.696-0.463-1.241-1.358-1.634-0.894-0.418-2.158-0.614-3.789-0.589-1.68 0.027-3.078 0.457-4.193 1.291-1.139 0.81-1.7 1.779-1.682 2.907 0.018 1.104 0.343 1.963 0.977 2.577 0.585 0.567 1.336 0.975 2.252 1.224l1.337 0.303c1.011 0.2 1.806 0.404 2.386 0.61 0.603 0.183 1.111 0.463 1.525 0.84 0.414 0.378 0.626 0.891 0.637 1.539 0.013 0.815-0.265 1.48-0.833 1.993-0.544 0.513-1.32 0.777-2.328 0.793-0.6 9e-3 -2.022-0.412-4.268-1.265-0.145-0.045-0.253-0.068-0.325-0.067-0.312 5e-3 -0.586 0.154-0.821 0.446-0.236 0.267-0.351 0.569-0.346 0.905 0.012 0.744 0.586 1.359 1.721 1.845 1.136 0.486 2.484 0.717 4.044 0.692 1.584-0.025 2.933-0.466 4.047-1.324 1.139-0.882 1.694-2.199 1.666-3.951-0.012-0.744-0.118-1.378-0.318-1.903-0.177-0.549-0.375-0.918-0.594-1.107-0.243-0.236-0.547-0.471-0.911-0.706-0.364-0.282-1.197-0.581-2.498-0.896-1.326-0.315-2.411-0.67-3.258-1.065-0.918-0.417-1.382-0.902-1.391-1.454s0.356-1.014 1.094-1.385c0.738-0.396 1.455-0.599 2.151-0.61 0.744-0.012 1.515 0.168 2.313 0.539 0.846 0.371 1.461 0.553 1.845 0.547 0.216-4e-3 0.418-0.103 0.607-0.298 0.213-0.219 0.316-0.485 0.311-0.797z" fill="#00AAE0"/>
    <path d="m551.27 320.36c0.359-8e-3 0.705-0.135 1.036-0.382 0.33-0.272 0.504-0.551 0.522-0.84 0.069-1.25 0.034-5.15-0.107-11.7-0.032-1.488-0.062-2.363-0.092-2.627-0.032-0.383-0.182-0.668-0.45-0.854-0.244-0.163-0.546-0.241-0.905-0.233-0.36 8e-3 -0.658 0.122-0.893 0.343-0.212 0.197-0.314 0.463-0.307 0.799l0.169 14.652c0.013 0.575 0.355 0.856 1.027 0.842z" fill="#00AAE0"/>
    <path d="m569.77 310.54c0.724-0.764 1.068-1.793 1.033-3.089-0.034-1.271-0.589-2.277-1.666-3.016-1.053-0.764-2.395-1.124-4.026-1.08-1.632 0.044-2.699 0.517-3.203 1.419s-0.727 2.433-0.669 4.592c0.092 3.407 0.211 6.477 0.357 9.21l0.078 1.546c5.686-0.153 8.889-0.648 9.611-1.484 1.051-1.085 1.556-2.395 1.515-3.93-0.026-0.936-0.325-1.816-0.9-2.641-0.575-0.849-1.285-1.358-2.13-1.527zm-6.061-3.077c-0.018-0.648 0.102-1.108 0.359-1.379 0.28-0.295 0.804-0.454 1.572-0.474 0.815-0.022 1.504 0.151 2.066 0.52 0.586 0.345 0.886 0.805 0.902 1.38 0.027 1.008-0.445 1.765-1.415 2.271-0.972 0.459-2.106 0.705-3.402 0.74l-0.082-3.058zm3.805 4.867c1.991-0.054 3.009 0.759 3.055 2.438 0.038 1.44-1.029 2.369-3.202 2.788-1.124 0.198-1.937 0.304-2.441 0.317-0.504-0.01-0.78-0.014-0.828-0.013-0.152-1.173-0.243-2.322-0.274-3.45l-9e-3 -1.692c1.458-0.232 2.691-0.361 3.699-0.388z" fill="#00AAE0"/>
    <path d="m585.79 319.45c1.391-0.046 2.588-0.17 3.59-0.372 0.499-0.137 0.739-0.529 0.717-1.177-0.027-0.815-0.437-1.21-1.228-1.183l-5.315 0.502c-0.121-1.485-0.2-2.755-0.235-3.81-0.032-0.96 0.043-2.667 0.225-5.123 0.176-1.903 0.261-3.298 0.256-4.187-0.013-0.383-0.167-0.678-0.462-0.885-0.295-0.206-0.671-0.301-1.126-0.286-0.912 0.03-1.358 0.345-1.337 0.945l0.097 10.443c0.071 2.134 0.196 3.703 0.373 4.706 0.084 0.357 0.426 0.526 1.026 0.506l3.419-0.079z" fill="#00AAE0"/>
    <path d="m603.75 310.69c0.528-0.021 0.924-0.037 1.187-0.047 0.263-0.035 0.455-0.054 0.575-0.059 0.285-0.059 0.543-0.226 0.772-0.499 0.23-0.273 0.339-0.554 0.327-0.842-0.023-0.575-0.408-0.896-1.155-0.963-3.046 0.121-4.881 0.182-5.505 0.183-0.031-0.167-0.091-1.377-0.181-3.631 0.915 0.035 1.803 0.036 2.667 2e-3 2.374-0.095 3.866-0.322 4.476-0.683 0.28-0.203 0.411-0.533 0.393-0.988-0.024-0.6-0.422-0.944-1.194-1.034l-0.036 2e-3 -6.299 0.142-1.007 0.04c-1.079 0.067-1.6 0.544-1.565 1.432 0.061 1.534 0.165 3.236 0.311 5.103-0.253 0.275-0.373 0.568-0.361 0.879 0.014 0.36 0.181 0.618 0.499 0.773l0.238 5.971c0.03 0.768 0.126 1.376 0.288 1.826s0.543 0.663 1.143 0.64l7.047-0.353c0.935-0.037 1.383-0.559 1.343-1.566-0.021-0.528-0.381-0.814-1.079-0.858l-6.219 0.355c0.023-0.025 0.022-0.361-4e-3 -1.008l-0.259-4.71 3.598-0.107z" fill="#00AAE0"/>
    <path d="m631.81 317.86c0.152 0.617 0.54 0.909 1.163 0.877 0.407-0.021 0.759-0.184 1.056-0.487 0.297-0.304 0.435-0.648 0.415-1.031 0.676 0.061 1.254 0.079 1.733 0.054 2.133-0.111 3.773-0.701 4.919-1.77 1.169-1.095 1.703-2.6 1.603-4.518-0.136-2.612-1.412-4.973-3.829-7.082-2.369-2.112-4.8-3.103-7.292-2.974-0.911 0.048-1.438 0.532-1.583 1.453-0.088 0.605-0.109 1.375-0.06 2.31 0.031 0.599 0.15 1.963 0.357 4.091 0.261 2.702 0.54 4.826 0.836 6.373-0.155 0.248-0.228 0.469-0.218 0.66 0.015 0.288 0.185 0.543 0.509 0.767l0.391 1.277zm0.769-14.315c2.25 0.748 4.051 1.88 5.404 3.396 1.352 1.516 2.08 3.268 2.184 5.257 0.082 1.582-1.279 2.446-4.083 2.592-1.246 0.065-1.99 0.08-2.233 0.044-0.295-1.523-0.573-3.395-0.833-5.616-0.248-2.463-0.383-3.898-0.404-4.305-0.038-0.743-0.05-1.199-0.035-1.368z" fill="#00AAE0"/>
    <path d="m652.32 316.39c0.36-0.021 0.7-0.161 1.022-0.42 0.32-0.283 0.484-0.569 0.491-0.858 0.024-1.251-0.153-5.148-0.531-11.689-0.086-1.485-0.149-2.359-0.188-2.621-0.046-0.382-0.206-0.661-0.481-0.838-0.249-0.154-0.554-0.22-0.913-0.199-0.359 0.02-0.653 0.145-0.88 0.375-0.204 0.204-0.297 0.474-0.277 0.809l0.701 14.636c0.033 0.575 0.386 0.843 1.056 0.805z" fill="#00AAE0"/>
    <path d="m669.49 298.72c-2.299 0.146-4.176 1.083-5.629 2.81-1.431 1.703-2.061 3.895-1.89 6.578 0.079 1.245 0.384 2.452 0.915 3.621 0.554 1.143 1.299 2.082 2.235 2.816 0.985 0.731 2.04 1.06 3.165 0.989 1.102-0.07 2.204-0.513 3.307-1.329 0.098 0.403 0.248 0.682 0.45 0.837 0.201 0.132 0.481 0.186 0.84 0.163 0.383-0.024 0.643-0.101 0.779-0.229 0.16-0.131 0.254-0.353 0.282-0.668 0.067-0.461 0.075-1.087 0.025-1.877l-0.053-0.826c-0.083-1.318-0.351-2.695-0.803-4.134-0.232-0.61-0.728-1.036-1.488-1.276-0.516-0.16-1.156-0.215-1.923-0.166l-1.003 0.1c-0.762 0.12-1.116 0.612-1.061 1.474 0.027 0.431 0.225 0.707 0.594 0.828 0.392 0.119 1.103 0.146 2.133 0.081 0.455-0.029 0.722 0.579 0.801 1.825 0.046 0.718-0.203 1.335-0.748 1.851-0.522 0.49-1.226 0.763-2.112 0.819-0.862 0.055-1.674-0.422-2.436-1.432-0.736-0.987-1.153-2.247-1.25-3.78-0.099-1.557 0.291-2.989 1.17-4.295 0.901-1.332 2.106-2.046 3.615-2.142 0.599-0.038 1.293 0.098 2.082 0.409 0.492 0.161 0.821 0.236 0.989 0.226 0.359-0.023 0.663-0.163 0.911-0.419s0.362-0.552 0.34-0.887c-0.039-0.623-0.504-1.123-1.393-1.499-0.89-0.376-1.838-0.532-2.844-0.468z" fill="#00AAE0"/>
    <path d="m684.3 314.36c0.359-0.025 0.698-0.169 1.016-0.431 0.317-0.287 0.478-0.575 0.482-0.864 9e-3 -1.251-0.213-5.145-0.666-11.682-0.103-1.484-0.176-2.357-0.218-2.619-0.05-0.381-0.214-0.659-0.491-0.832-0.251-0.151-0.556-0.214-0.915-0.189s-0.651 0.153-0.875 0.385c-0.202 0.207-0.292 0.478-0.269 0.813l0.87 14.627c0.04 0.574 0.395 0.838 1.066 0.792z" fill="#00AAE0"/>
    <path d="m703.01 298.6c2.249-0.169 3.337-0.744 3.264-1.725-0.036-0.479-0.383-0.765-1.04-0.86l-11.173 1.2c-0.333 0.049-0.633 0.228-0.899 0.537-0.241 0.307-0.351 0.604-0.33 0.891 0.047 0.622 0.441 0.906 1.183 0.85 1.317-0.099 2.772-0.269 4.367-0.509-0.02 1.662 0.069 3.81 0.267 6.442 0.165 2.202 0.373 4.485 0.623 6.849 0.05 0.67 0.387 0.982 1.009 0.935 0.359-0.027 0.674-0.159 0.945-0.396 0.293-0.263 0.427-0.561 0.402-0.897-0.065-0.861-0.127-1.53-0.187-2.007l-0.238-2.69-0.568-8.513 2.375-0.107z" fill="#00AAE0"/>
    <path d="m717.93 310.86c0.028-1.11 0.285-2.961 0.769-5.554 1.319 0.228 3.019 0.256 5.1 0.084l1.662 4.811c0.223 0.656 0.729 0.951 1.518 0.886 0.311-0.026 0.567-0.143 0.766-0.352 0.199-0.21 0.287-0.458 0.264-0.745-0.878-2.745-1.61-4.9-2.197-6.465-0.619-1.658-1.394-3.316-2.326-4.973-0.93-1.633-1.53-2.63-1.801-2.993-0.325-0.431-0.678-0.631-1.061-0.599-0.742 0.061-1.429 0.781-2.061 2.157-0.697 1.479-1.254 3.187-1.671 5.124-1.031 4.42-1.488 7.347-1.369 8.782 0.052 0.622 0.448 0.903 1.19 0.841 0.765-0.063 1.171-0.398 1.217-1.004zm2.859-12.59c0.815 1.401 1.548 2.99 2.201 4.767-1.435 0.118-2.691 0.078-3.767-0.122 0.364-1.716 0.886-3.264 1.566-4.645z" fill="#00AAE0"/>
    <path d="m740.69 309.93c1.387-0.124 2.574-0.314 3.563-0.571 0.492-0.165 0.708-0.57 0.651-1.215-0.073-0.813-0.504-1.184-1.293-1.114l-5.278 0.798c-0.204-1.476-0.353-2.74-0.447-3.791-0.086-0.957-0.106-2.666-0.061-5.127 0.07-1.91 0.077-3.308 0.022-4.195-0.034-0.382-0.204-0.668-0.51-0.858-0.306-0.189-0.686-0.264-1.141-0.223-0.908 0.081-1.335 0.42-1.282 1.018l0.679 10.421c0.19 2.128 0.402 3.687 0.635 4.678 0.104 0.352 0.455 0.502 1.052 0.448l3.41-0.269z" fill="#00AAE0"/>
    <path d="m772.04 298.8c0.526-0.053 0.92-0.093 1.182-0.12 0.261-0.05 0.451-0.081 0.57-0.093 0.282-0.077 0.529-0.259 0.741-0.545 0.212-0.287 0.304-0.574 0.275-0.86-0.058-0.573-0.462-0.87-1.212-0.891-3.032 0.306-4.86 0.478-5.483 0.517-0.041-0.165-0.175-1.37-0.401-3.614 0.915-0.02 1.802-0.073 2.661-0.16 2.364-0.239 3.84-0.556 4.427-0.953 0.267-0.22 0.378-0.557 0.332-1.011-0.06-0.597-0.478-0.916-1.254-0.959l-0.036 4e-3 -6.279 0.525-1.003 0.101c-1.072 0.132-1.564 0.64-1.475 1.524 0.155 1.528 0.361 3.22 0.621 5.075-0.236 0.289-0.339 0.589-0.307 0.899 0.036 0.359 0.218 0.606 0.545 0.741l0.6 5.946c0.077 0.764 0.21 1.366 0.399 1.805 0.189 0.44 0.582 0.629 1.179 0.569l7.013-0.78c0.931-0.094 1.346-0.642 1.245-1.645-0.053-0.526-0.429-0.789-1.129-0.791l-6.186 0.733c0.022-0.027 0-0.362-0.065-1.007l-0.545-4.685 3.585-0.325z" fill="#00AAE0"/>
    <path d="m785.42 303.4c-0.255 0.317-0.364 0.655-0.325 1.013 0.036 0.334 0.196 0.582 0.479 0.744 0.265 0.213 0.552 0.303 0.862 0.269 0.334-0.036 0.681-0.183 1.039-0.439 1.582-1.885 3.1-3.8 4.555-5.745 1.234 1.363 2.371 2.495 3.41 3.396 1.066 0.923 1.778 1.364 2.136 1.326 0.358-0.039 0.677-0.207 0.959-0.503s0.404-0.611 0.368-0.945-0.285-0.742-0.748-1.223c-0.441-0.507-1.184-1.235-2.229-2.184-0.777-0.712-1.495-1.431-2.153-2.156 3.115-4.442 4.609-7.248 4.482-8.417-0.023-0.215-0.155-0.43-0.396-0.645-0.243-0.239-0.496-0.344-0.758-0.316-0.573 0.062-1.032 0.39-1.378 0.983-0.061 0.103-0.341 0.64-0.839 1.611-0.117 0.255-0.237 0.485-0.36 0.691-0.314 0.662-0.481 1.018-0.499 1.068-0.608 1.08-1.302 2.133-2.084 3.16l-1.787-2.124c-0.534-0.69-1.035-1.3-1.502-1.829-0.058-0.09-0.418-0.509-1.079-1.259-0.66-0.749-1.253-1.095-1.778-1.038-0.31 0.034-0.603 0.223-0.88 0.566-0.276 0.344-0.397 0.683-0.36 1.017 0.013 0.12 0.053 0.272 0.122 0.458 0.208 0.363 0.495 0.779 0.859 1.246l1.443 1.618c0.516 0.524 1.145 1.204 1.887 2.04l1.364 1.554-4.81 6.063z" fill="#00AAE0"/>
    <path d="m810.59 286c-2.717 0.315-4.042 0.977-3.973 1.984l1.562 13.445c0.063 0.548 0.218 0.941 0.463 1.179 0.242 0.213 0.673 0.284 1.293 0.212 0.643-0.075 0.957-0.389 0.941-0.943-0.063-0.959-0.134-1.785-0.215-2.476-0.127-1.097-0.314-2.392-0.56-3.885 0.607 0.026 1.233 2e-3 1.876-0.073 1.502-0.175 2.655-0.647 3.46-1.417 1.108-1.071 1.548-2.584 1.321-4.539-0.147-1.263-0.788-2.203-1.922-2.821-1.114-0.643-2.529-0.866-4.246-0.666zm-1.35 2.73c0.609-0.168 1.068-0.269 1.378-0.305 0.572-0.067 1.19-0.054 1.853 0.038 1.13 0.159 1.755 0.545 1.874 1.16l0.038 0.321c0.119 1.026-0.144 1.781-0.788 2.267-0.467 0.344-1.202 0.574-2.203 0.69-0.62 0.072-1.196 0.103-1.729 0.092l-0.174-1.501c-0.147-1.264-0.23-2.185-0.249-2.762z" fill="#00AAE0"/>
    <path d="m832.56 292c0.524-0.064 0.917-0.113 1.179-0.145 0.259-0.056 0.448-0.091 0.567-0.106 0.28-0.083 0.523-0.27 0.729-0.561 0.206-0.292 0.291-0.58 0.256-0.866-0.07-0.572-0.481-0.86-1.231-0.864-3.025 0.372-4.849 0.585-5.471 0.637-0.044-0.164-0.204-1.365-0.48-3.604 0.914-0.04 1.8-0.113 2.657-0.218 2.359-0.291 3.827-0.641 4.405-1.051 0.263-0.225 0.366-0.564 0.31-1.017-0.073-0.596-0.498-0.906-1.275-0.931l-0.036 4e-3 -6.266 0.663-1 0.123c-1.069 0.156-1.55 0.674-1.441 1.556 0.188 1.524 0.432 3.211 0.732 5.06-0.23 0.294-0.326 0.596-0.288 0.906 0.044 0.357 0.231 0.6 0.561 0.729l0.731 5.931c0.093 0.762 0.24 1.361 0.438 1.796 0.199 0.435 0.596 0.616 1.192 0.542l6.994-0.933c0.929-0.114 1.332-0.672 1.209-1.672-0.065-0.524-0.447-0.78-1.147-0.766l-6.168 0.868c0.021-0.027-8e-3 -0.362-0.087-1.005l-0.648-4.672 3.578-0.404z" fill="#00AAE0"/>
    <path d="m848.46 296.75c-0.351-2.133-0.583-3.543-0.696-4.23 1.062 0.539 2.282 1.264 3.659 2.174 1.353 0.913 2.211 1.551 2.573 1.916 0.496 0.467 0.923 0.678 1.28 0.632 0.095-0.013 0.245-0.069 0.45-0.168 0.547-0.265 0.786-0.659 0.718-1.183-0.096-0.737-0.802-1.601-2.117-2.592-1.362-0.984-2.83-1.846-4.403-2.585 0.188-0.049 0.734-0.41 1.638-1.085 0.905-0.674 1.573-1.209 2.006-1.604 0.494-0.476 0.914-1.063 1.259-1.761 0.368-0.702 0.52-1.302 0.455-1.802-0.143-1.095-0.845-1.935-2.107-2.521-1.266-0.61-2.66-0.816-4.183-0.617-1.547 0.201-2.745 0.575-3.593 1.121-0.849 0.546-1.224 1.2-1.124 1.962 1.029 7.901 1.654 12.333 1.876 13.297 0.062 0.476 0.355 0.68 0.879 0.611 0.404-0.052 0.756-0.231 1.055-0.536 0.299-0.306 0.426-0.637 0.379-0.994l-4e-3 -0.035zm-1.11-7.407c-0.329-2.523-0.531-4.166-0.606-4.931 0.829-0.326 1.695-0.548 2.6-0.665 0.857-0.112 1.641-0.033 2.354 0.238 0.734 0.243 1.139 0.662 1.217 1.257 0.015 0.676-0.711 1.508-2.18 2.498-1.495 0.97-2.624 1.504-3.385 1.603z" fill="#00AAE0"/>
    <path d="m866.56 295.73c0.356-0.049 0.685-0.215 0.986-0.498 0.297-0.306 0.438-0.604 0.423-0.893-0.073-1.249-0.55-5.12-1.433-11.613-0.2-1.474-0.33-2.341-0.389-2.599-0.076-0.377-0.257-0.643-0.545-0.798-0.26-0.134-0.569-0.177-0.925-0.128-0.357 0.048-0.64 0.196-0.849 0.442-0.188 0.219-0.259 0.495-0.214 0.828l1.83 14.538c0.078 0.571 0.45 0.811 1.116 0.721z" fill="#00AAE0"/>
    <path d="m882.05 285.44c0.522-0.074 0.914-0.129 1.176-0.166 0.258-0.061 0.446-0.1 0.565-0.116 0.279-0.088 0.518-0.28 0.719-0.575s0.281-0.585 0.24-0.87c-0.08-0.57-0.496-0.851-1.246-0.842-3.018 0.427-4.837 0.672-5.459 0.736-0.047-0.163-0.228-1.362-0.544-3.595 0.913-0.057 1.797-0.145 2.653-0.266 2.352-0.333 3.814-0.709 4.385-1.129 0.258-0.231 0.355-0.572 0.291-1.023-0.084-0.594-0.514-0.897-1.291-0.908l-0.036 5e-3 -6.253 0.775-0.998 0.141c-1.066 0.175-1.537 0.702-1.413 1.581 0.215 1.521 0.49 3.203 0.823 5.047-0.225 0.298-0.315 0.602-0.271 0.911 0.05 0.356 0.242 0.596 0.574 0.718l0.837 5.917c0.107 0.761 0.264 1.357 0.471 1.788 0.206 0.431 0.606 0.605 1.2 0.521l6.977-1.059c0.927-0.131 1.319-0.696 1.178-1.694-0.074-0.523-0.46-0.771-1.159-0.745l-6.152 0.979c0.02-0.027-0.015-0.361-0.105-1.003l-0.732-4.659 3.57-0.469z" fill="#00AAE0"/>
    <path d="m896.58 280.15c2.303 1.938 4.61 4.483 6.923 7.633 0.089 0.108 0.27 0.348 0.543 0.719 0.274 0.372 0.65 0.777 1.128 1.216 0.392 0.354 0.885 0.487 1.478 0.399 0.997-0.149 1.404-0.84 1.22-2.075l-2.148-13.219c-0.06-0.404-0.24-0.717-0.54-0.939-0.303-0.246-0.609-0.346-0.918-0.3-0.783 0.116-1.203 0.64-1.259 1.57l0.043 0.285 0.612 2.893c0.471 2.187 0.935 4.738 1.393 7.655-1.557-2.316-3.657-4.685-6.298-7.107-1.102-1.049-1.936-1.762-2.502-2.139-0.569-0.401-1.032-0.575-1.388-0.522-0.664 0.099-1.044 0.483-1.138 1.152-0.045 0.516-2e-3 1.214 0.129 2.092l0.174 1.175 1.199 10.013c0.069 0.305 0.227 0.548 0.472 0.73 0.266 0.155 0.541 0.211 0.826 0.169 0.736-0.11 1.104-0.492 1.103-1.147 0.01-0.099-0.015-0.35-0.075-0.753l-0.081-0.789-0.896-8.711z" fill="#00AAE0"/>
    <path d="m925.54 273.39c0.356-0.056 0.678-0.252 0.965-0.588 0.284-0.361 0.401-0.695 0.353-1.003-0.059-0.379-0.317-0.631-0.774-0.753l-5e-3 -0.036c-1.399-0.242-2.797-0.254-4.196-0.035-2.348 0.368-4.177 1.407-5.488 3.119-1.291 1.684-1.737 3.795-1.34 6.332 0.293 1.873 1.031 3.555 2.212 5.046 0.58 0.759 1.303 1.339 2.167 1.738s1.699 0.535 2.505 0.409c1.304-0.204 3.352-1.169 6.142-2.894 0.49-0.441 0.696-0.91 0.618-1.408-0.093-0.593-0.46-0.839-1.1-0.739-0.095 0.015-0.882 0.418-2.361 1.208-1.48 0.791-2.516 1.232-3.109 1.325-0.616 0.097-1.255-0.107-1.917-0.61-1.34-0.956-2.163-2.407-2.467-4.351-0.602-3.841 1.018-6.063 4.859-6.664l2.936-0.096z" fill="#00AAE0"/>
    <path d="m943.24 276.07c0.521-0.085 0.912-0.149 1.173-0.192 0.256-0.067 0.444-0.11 0.562-0.129 0.277-0.094 0.512-0.291 0.706-0.59 0.194-0.3 0.268-0.591 0.221-0.876-0.093-0.568-0.515-0.839-1.265-0.813-3.007 0.493-4.821 0.779-5.441 0.857-0.05-0.162-0.259-1.356-0.624-3.583 0.911-0.076 1.793-0.185 2.646-0.325 2.345-0.385 3.798-0.794 4.359-1.226 0.253-0.236 0.342-0.579 0.269-1.029-0.098-0.592-0.535-0.885-1.312-0.879l-0.036 5e-3 -6.234 0.915-0.995 0.163c-1.061 0.199-1.52 0.736-1.377 1.613 0.249 1.515 0.561 3.191 0.935 5.026-0.217 0.304-0.301 0.609-0.25 0.917 0.058 0.355 0.255 0.591 0.59 0.706l0.968 5.897c0.125 0.758 0.295 1.35 0.511 1.777 0.216 0.426 0.62 0.591 1.212 0.494l6.951-1.215c0.924-0.151 1.304-0.725 1.141-1.719-0.086-0.521-0.478-0.761-1.177-0.719l-6.128 1.116c0.02-0.028-0.023-0.361-0.128-1.001l-0.835-4.642 3.558-0.548z" fill="#00AAE0"/>
    <path d="m965.35 265.95c-0.118-0.686-0.649-1.155-1.593-1.407-0.948-0.276-2.226-0.276-3.835 0-1.656 0.284-2.971 0.923-3.945 1.918-1.001 0.975-1.407 2.019-1.216 3.131 0.186 1.088 0.64 1.887 1.36 2.396 0.665 0.47 1.47 0.759 2.413 0.865l1.368 0.094c1.03 0.043 1.847 0.122 2.451 0.237 0.624 0.088 1.169 0.287 1.636 0.596 0.467 0.31 0.756 0.784 0.865 1.423 0.138 0.804-0.034 1.503-0.517 2.097-0.459 0.59-1.185 0.97-2.178 1.141-0.592 0.101-2.063-0.097-4.412-0.595-0.15-0.023-0.261-0.029-0.332-0.016-0.307 0.052-0.555 0.241-0.743 0.565-0.192 0.301-0.26 0.617-0.203 0.948 0.126 0.733 0.787 1.253 1.984 1.559s2.564 0.328 4.102 0.064c1.561-0.268 2.827-0.911 3.797-1.929 0.989-1.046 1.336-2.433 1.04-4.16-0.126-0.733-0.328-1.344-0.607-1.832-0.258-0.515-0.511-0.849-0.756-1.002-0.277-0.196-0.613-0.382-1.009-0.558-0.403-0.223-1.272-0.39-2.606-0.503-1.358-0.108-2.485-0.292-3.382-0.552-0.972-0.272-1.504-0.68-1.598-1.224-0.093-0.544 0.197-1.056 0.869-1.537 0.668-0.504 1.346-0.815 2.032-0.932 0.733-0.126 1.522-0.067 2.368 0.178 0.893 0.237 1.528 0.322 1.907 0.258 0.213-0.037 0.398-0.166 0.554-0.388 0.177-0.249 0.239-0.528 0.186-0.835z" fill="#00AAE0"/>
    <path d="m980.63 275.65c-0.185-0.625-0.499-1.093-0.945-1.404-0.449-0.335-0.934-0.456-1.453-0.364-0.473 0.084-0.848 0.443-1.125 1.078-0.282 0.61-0.37 1.211-0.266 1.802 0.097 0.543 0.359 0.923 0.788 1.14 0.428 0.216 0.914 0.276 1.458 0.18 0.496-0.089 0.895-0.379 1.198-0.871 0.322-0.521 0.437-1.041 0.345-1.561z" fill="#00AAE0"/>
</svg>
