<svg width="1863" height="2191" viewBox="0 0 1863 2191" fill="none" xmlns="http://www.w3.org/2000/svg">
<g filter="url(#filter0_f_0_1)">
<path d="M650.402 329.77C650.402 259.77 603.735 198.603 580.402 176.77C470.902 54.2701 807.902 120.27 995.402 272.77C1182.9 425.27 977.902 526.27 807.902 653.27C637.902 780.27 650.402 417.27 650.402 329.77Z" fill="url(#paint0_linear_0_1)"/>
</g>
<g filter="url(#filter1_f_0_1)">
<path d="M1571.57 1567.77C1571.57 1497.77 1618.24 1436.6 1641.57 1414.77C1751.07 1292.27 1414.07 1358.27 1226.57 1510.77C1039.07 1663.27 1244.07 1764.27 1414.07 1891.27C1584.07 2018.27 1571.57 1655.27 1571.57 1567.77Z" fill="url(#paint1_linear_0_1)"/>
</g>
<g filter="url(#filter2_f_0_1)">
<path d="M1203.53 377.009C1273.29 371.222 1330.39 319.658 1350.22 294.6C1463.25 175.348 1425.33 516.651 1288.86 716.116C1152.38 915.581 1034.78 719.632 894.159 560.713C753.54 401.793 1116.33 384.242 1203.53 377.009Z" fill="url(#paint2_linear_0_1)"/>
</g>
<g filter="url(#filter3_f_0_1)">
<path d="M384.713 1752.01C314.953 1746.22 257.853 1694.66 238.024 1669.6C124.995 1550.35 162.91 1891.65 299.388 2091.12C435.866 2290.58 553.467 2094.63 694.086 1935.71C834.705 1776.79 471.914 1759.24 384.713 1752.01Z" fill="url(#paint3_linear_0_1)"/>
</g>
<defs>
<filter id="filter0_f_0_1" x="359" y="-87" width="910.974" height="966.944" filterUnits="userSpaceOnUse" color-interpolation-filters="sRGB">
<feFlood flood-opacity="0" result="BackgroundImageFix"/>
<feBlend mode="normal" in="SourceGraphic" in2="BackgroundImageFix" result="shape"/>
<feGaussianBlur stdDeviation="100" result="effect1_foregroundBlur_0_1"/>
</filter>
<filter id="filter1_f_0_1" x="952" y="1151" width="910.974" height="966.944" filterUnits="userSpaceOnUse" color-interpolation-filters="sRGB">
<feFlood flood-opacity="0" result="BackgroundImageFix"/>
<feBlend mode="normal" in="SourceGraphic" in2="BackgroundImageFix" result="shape"/>
<feGaussianBlur stdDeviation="100" result="effect1_foregroundBlur_0_1"/>
</filter>
<filter id="filter2_f_0_1" x="662.132" y="69.9331" width="954.625" height="930.619" filterUnits="userSpaceOnUse" color-interpolation-filters="sRGB">
<feFlood flood-opacity="0" result="BackgroundImageFix"/>
<feBlend mode="normal" in="SourceGraphic" in2="BackgroundImageFix" result="shape"/>
<feGaussianBlur stdDeviation="100" result="effect1_foregroundBlur_0_1"/>
</filter>
<filter id="filter3_f_0_1" x="-28.5126" y="1444.93" width="954.625" height="930.619" filterUnits="userSpaceOnUse" color-interpolation-filters="sRGB">
<feFlood flood-opacity="0" result="BackgroundImageFix"/>
<feBlend mode="normal" in="SourceGraphic" in2="BackgroundImageFix" result="shape"/>
<feGaussianBlur stdDeviation="100" result="effect1_foregroundBlur_0_1"/>
</filter>
<linearGradient id="paint0_linear_0_1" x1="514.902" y1="113.271" x2="951.902" y2="609.271" gradientUnits="userSpaceOnUse">
<stop stop-color="#EFD1EA"/>
<stop offset="1" stop-color="#E6CCAF"/>
</linearGradient>
<linearGradient id="paint1_linear_0_1" x1="1707.07" y1="1351.27" x2="1270.07" y2="1847.27" gradientUnits="userSpaceOnUse">
<stop stop-color="#EFD1EA"/>
<stop offset="1" stop-color="#E6CCAF"/>
</linearGradient>
<linearGradient id="paint2_linear_0_1" x1="1408.09" y1="224.076" x2="949.912" y2="700.583" gradientUnits="userSpaceOnUse">
<stop stop-color="#FAFAFF"/>
<stop offset="1" stop-color="#C4B9C7"/>
</linearGradient>
<linearGradient id="paint3_linear_0_1" x1="180.156" y1="1599.08" x2="638.332" y2="2075.58" gradientUnits="userSpaceOnUse">
<stop stop-color="#FAFAFF"/>
<stop offset="1" stop-color="#C4B9C7"/>
</linearGradient>
</defs>
</svg>
